<!-- Generated by IcoMoon.io -->
<svg version="1.1" xmlns="http://www.w3.org/2000/svg" width="24" height="24" viewBox="0 0 24 24">
<title>account-multiple-plus</title>
<path d="M13 13c-2 0-6 1-6 3v2h12v-2c0-2-4-3-6-3zM19.62 13.16c0.83 0.72 1.38 1.66 1.38 2.84v2h3v-2c0-1.54-2.37-2.5-4.38-2.84zM13 11c1.657 0 3-1.343 3-3s-1.343-3-3-3c-1.657 0-3 1.343-3 3s1.343 3 3 3zM18 11c1.657 0 3-1.343 3-3s-1.343-3-3-3c-0.32 0-0.63 0.050-0.92 0.14 0.57 0.81 0.92 1.8 0.92 2.86s-0.35 2.040-0.92 2.85c0.29 0.1 0.6 0.15 0.92 0.15zM8 10h-3v-3h-2v3h-3v2h3v3h2v-3h3v-2z"></path>
</svg>
