<!-- Generated by IcoMoon.io -->
<svg version="1.1" xmlns="http://www.w3.org/2000/svg" width="24" height="24" viewBox="0 0 24 24">
<title>account-settings-variant</title>
<path d="M9 4c-2.209 0-4 1.791-4 4s1.791 4 4 4c2.209 0 4-1.791 4-4s-1.791-4-4-4zM9 14c-2.67 0-8 1.33-8 4v2h11.080c-0.050-0.33-0.080-0.66-0.080-1 0-1.5 0.5-3 1.41-4.2-1.53-0.52-3.23-0.8-4.41-0.8zM18 14c-0.13 0-0.24 0.090-0.26 0.21l-0.19 1.32c-0.3 0.13-0.59 0.29-0.85 0.47l-1.24-0.5c-0.11 0-0.24 0-0.31 0.13l-1 1.73c-0.060 0.11-0.040 0.24 0.060 0.32l1.060 0.82c-0.020 0.17-0.030 0.33-0.030 0.5s0.010 0.33 0.030 0.5l-1.060 0.82c-0.090 0.080-0.12 0.21-0.060 0.32l1 1.73c0.060 0.13 0.19 0.13 0.31 0.13l1.24-0.5c0.26 0.18 0.54 0.35 0.85 0.47l0.19 1.32c0.020 0.12 0.12 0.21 0.26 0.21h2c0.11 0 0.22-0.090 0.24-0.21l0.19-1.32c0.3-0.13 0.57-0.29 0.84-0.47l1.23 0.5c0.13 0 0.26 0 0.33-0.13l1-1.73c0.060-0.11 0.030-0.24-0.060-0.32l-1.070-0.82c0.020-0.17 0.040-0.33 0.040-0.5s-0.010-0.33-0.040-0.5l1.060-0.82c0.090-0.080 0.12-0.21 0.060-0.32l-1-1.73c-0.060-0.13-0.19-0.13-0.32-0.13l-1.23 0.5c-0.27-0.18-0.54-0.35-0.85-0.47l-0.19-1.32c-0.010-0.12-0.12-0.21-0.23-0.21zM19 17.5c0.828 0 1.5 0.672 1.5 1.5s-0.672 1.5-1.5 1.5c-0.84 0-1.5-0.67-1.5-1.5 0-0.828 0.672-1.5 1.5-1.5z"></path>
</svg>
