<!-- Generated by IcoMoon.io -->
<svg version="1.1" xmlns="http://www.w3.org/2000/svg" width="24" height="24" viewBox="0 0 24 24">
<title>alarm-check</title>
<path d="M10.54 14.53l-2.13-2.13-1.060 1.060 3.18 3.18 6-6-1.060-1.060-4.93 4.95zM12 20c-3.866 0-7-3.134-7-7s3.134-7 7-7c3.866 0 7 3.134 7 7s-3.134 7-7 7zM12 4c-4.971 0-9 4.029-9 9s4.029 9 9 9c4.971 0 9-4.029 9-9s-4.029-9-9-9zM7.88 3.39l-1.28-1.53-4.6 3.85 1.29 1.53 4.59-3.85zM22 5.72l-4.6-3.86-1.29 1.53 4.6 3.86 1.29-1.53z"></path>
</svg>
