<!-- Generated by IcoMoon.io -->
<svg version="1.1" xmlns="http://www.w3.org/2000/svg" width="24" height="24" viewBox="0 0 24 24">
<title>all-inclusive</title>
<path d="M18.6 6.62c-1.44 0-2.8 0.56-3.77 1.53l-7.030 6.24c-0.64 0.64-1.49 0.99-2.4 0.99-1.87 0-3.4-1.51-3.4-3.38s1.53-3.38 3.4-3.38c0.91 0 1.76 0.35 2.44 1.030l1.13 1 1.53-1.34-1.28-1.11c-1.020-1.020-2.38-1.58-3.82-1.58-2.98 0-5.4 2.42-5.4 5.38s2.42 5.38 5.4 5.38c1.44 0 2.8-0.56 3.77-1.53l7.030-6.24c0.64-0.64 1.49-0.99 2.4-0.99 1.87 0 3.4 1.51 3.4 3.38s-1.53 3.38-3.4 3.38c-0.9 0-1.76-0.35-2.44-1.030l-1.16-1.010-1.5 1.34 1.28 1.12c1.020 1.010 2.37 1.57 3.82 1.57 2.98 0 5.4-2.41 5.4-5.37 0-3-2.42-5.38-5.4-5.38z"></path>
</svg>
