<!-- Generated by IcoMoon.io -->
<svg version="1.1" xmlns="http://www.w3.org/2000/svg" width="24" height="24" viewBox="0 0 24 24">
<title>anchor</title>
<path d="M12 2c-1.657 0-3 1.343-3 3 0 1.27 0.8 2.4 2 2.83v2.17h-3v2h3v6.92c-1.84-0.29-3.47-1.35-4.47-2.92h1.47v-2h-5v5h2v-1.7c1.58 2.31 4.2 3.7 7 3.7s5.42-1.39 7-3.69v1.69h2v-5h-5v2h1.46c-1 1.56-2.63 2.63-4.46 2.92v-6.92h3v-2h-3v-2.18c1.2-0.42 2-1.55 2-2.82 0-1.657-1.343-3-3-3zM12 4c0.552 0 1 0.448 1 1s-0.448 1-1 1c-0.552 0-1-0.448-1-1s0.448-1 1-1z"></path>
</svg>
