<!-- Generated by IcoMoon.io -->
<svg version="1.1" xmlns="http://www.w3.org/2000/svg" width="24" height="24" viewBox="0 0 24 24">
<title>android</title>
<path d="M15 5h-1v-1h1zM10 5h-1v-1h1zM15.53 2.16l1.31-1.31c0.19-0.19 0.19-0.51 0-0.71-0.2-0.19-0.52-0.19-0.71 0l-1.48 1.48c-0.8-0.39-1.7-0.62-2.65-0.62-0.96 0-1.86 0.23-2.66 0.63l-1.49-1.49c-0.19-0.19-0.51-0.19-0.7 0-0.2 0.2-0.2 0.52 0 0.71l1.31 1.31c-1.49 1.1-2.46 2.84-2.46 4.84h12c0-2-1-3.75-2.47-4.84zM20.5 8c-0.828 0-1.5 0.672-1.5 1.5v7c0 0.828 0.672 1.5 1.5 1.5s1.5-0.672 1.5-1.5v-7c0-0.828-0.672-1.5-1.5-1.5zM3.5 8c-0.828 0-1.5 0.672-1.5 1.5v7c0 0.828 0.672 1.5 1.5 1.5s1.5-0.672 1.5-1.5v-7c0-0.828-0.672-1.5-1.5-1.5zM6 18c0 0.552 0.448 1 1 1h1v3.5c0 0.828 0.672 1.5 1.5 1.5s1.5-0.672 1.5-1.5v-3.5h2v3.5c0 0.828 0.672 1.5 1.5 1.5s1.5-0.672 1.5-1.5v-3.5h1c0.552 0 1-0.448 1-1v-10h-12v10z"></path>
</svg>
