<!-- Generated by IcoMoon.io -->
<svg version="1.1" xmlns="http://www.w3.org/2000/svg" width="24" height="24" viewBox="0 0 24 24">
<title>apple-safari</title>
<path d="M12 2c5.523 0 10 4.477 10 10v0c0 5.523-4.477 10-10 10v0c-5.523 0-10-4.477-10-10v0c0-5.523 4.477-10 10-10v0zM12 4c-4.418 0-8 3.582-8 8v0c0 2.090 0.8 4 2.11 5.41l3.77-7.53 7.53-3.77c-1.41-1.31-3.32-2.11-5.41-2.11zM12 20c4.418 0 8-3.582 8-8v0c0-2.090-0.8-4-2.11-5.41l-3.77 7.53-7.53 3.77c1.41 1.31 3.32 2.11 5.41 2.11zM12 12l-0.77-0.77-1.53 3.070 3.070-1.53-0.77-0.77zM12 17.5h1v1.5h-1v-1.5zM15.88 15.89l0.71-0.71 1.060 1.060-0.71 0.71-1.060-1.060zM17.5 12v-1h1.5v1h-1.5zM12 6.5h-1v-1.5h1v1.5zM8.12 8.11l-0.71 0.71-1.060-1.060 0.71-0.71 1.060 1.060zM6.5 12v1h-1.5v-1h1.5z"></path>
</svg>
