<!-- Generated by IcoMoon.io -->
<svg version="1.1" xmlns="http://www.w3.org/2000/svg" width="24" height="24" viewBox="0 0 24 24">
<title>bell-ring-outline</title>
<path d="M16 17v-6.5c0-2.5-2-4.5-4.5-4.5s-4.5 2-4.5 4.5v6.5h9zM18 16l2 2v1h-17v-1l2-2v-5.5c0-3.070 2.13-5.64 5-6.32v-0.68c0-0.828 0.672-1.5 1.5-1.5s1.5 0.672 1.5 1.5v0.68c2.86 0.68 5 3.25 5 6.32v5.5zM11.5 22c-1.105 0-2-0.895-2-2h4c0 1.105-0.895 2-2 2zM19.97 10c-0.15-2.65-1.51-5-3.55-6.42l1.43-1.43c2.39 1.82 3.97 4.64 4.12 7.85h-2zM6.58 3.58c-2.040 1.42-3.4 3.77-3.58 6.42h-2c0.18-3.21 1.76-6.030 4.15-7.85l1.43 1.43z"></path>
</svg>
