<!-- Generated by IcoMoon.io -->
<svg version="1.1" xmlns="http://www.w3.org/2000/svg" width="24" height="24" viewBox="0 0 24 24">
<title>bike</title>
<path d="M5 20.5c-1.933 0-3.5-1.567-3.5-3.5v0c0-1.933 1.567-3.5 3.5-3.5v0c1.933 0 3.5 1.567 3.5 3.5v0c0 1.933-1.567 3.5-3.5 3.5v0zM5 12c-2.761 0-5 2.239-5 5v0c0 2.761 2.239 5 5 5v0c2.761 0 5-2.239 5-5v0c0-2.761-2.239-5-5-5v0zM14.8 10h4.2v-1.8h-3.2l-1.94-3.27c-0.29-0.5-0.86-0.83-1.46-0.83-0.47 0-0.9 0.19-1.2 0.5l-3.7 3.69c-0.31 0.31-0.5 0.71-0.5 1.21 0 0.63 0.33 1.16 0.85 1.47l3.35 2.030v5h1.8v-6.5l-2.25-1.65 2.32-2.35zM19 20.5c-1.933 0-3.5-1.567-3.5-3.5v0c0-1.933 1.567-3.5 3.5-3.5v0c1.933 0 3.5 1.567 3.5 3.5v0c0 1.933-1.567 3.5-3.5 3.5v0zM19 12c-2.761 0-5 2.239-5 5v0c0 2.761 2.239 5 5 5v0c2.761 0 5-2.239 5-5v0c0-2.761-2.239-5-5-5v0zM16 4.8c1 0 1.8-0.8 1.8-1.8s-0.8-1.8-1.8-1.8c-1 0-1.8 0.8-1.8 1.8s0.8 1.8 1.8 1.8z"></path>
</svg>
