<!-- Generated by IcoMoon.io -->
<svg version="1.1" xmlns="http://www.w3.org/2000/svg" width="24" height="24" viewBox="0 0 24 24">
<title>book-open-page-variant</title>
<path d="M19 2l-5 4.5v11l5-4.5v-11zM6.5 5c-1.95 0-4.050 0.4-5.5 1.5v14.66c0 0.25 0.25 0.5 0.5 0.5 0.1 0 0.15-0.070 0.25-0.070 1.35-0.65 3.3-1.090 4.75-1.090 1.95 0 4.050 0.4 5.5 1.5 1.35-0.85 3.8-1.5 5.5-1.5 1.65 0 3.35 0.31 4.75 1.060 0.1 0.050 0.15 0.030 0.25 0.030 0.25 0 0.5-0.25 0.5-0.5v-14.59c-0.6-0.45-1.25-0.75-2-1v13.5c-1.1-0.35-2.3-0.5-3.5-0.5-1.7 0-4.15 0.65-5.5 1.5v-13.5c-1.45-1.1-3.55-1.5-5.5-1.5v0z"></path>
</svg>
