<!-- Generated by IcoMoon.io -->
<svg version="1.1" xmlns="http://www.w3.org/2000/svg" width="24" height="24" viewBox="0 0 24 24">
<title>buffer</title>
<path d="M12.6 2.86c2.67 1.24 5.4 2.53 8.060 3.77 0.15 0.070 0.34 0.12 0.34 0.32s-0.19 0.24-0.34 0.31c-2.66 1.24-5.36 2.51-8.040 3.74-0.41 0.21-0.83 0.21-1.24 0-2.69-1.24-5.38-2.5-8.060-3.75-0.14-0.060-0.32-0.11-0.32-0.31 0-0.18 0.18-0.23 0.31-0.29 2.69-1.26 5.43-2.55 8.13-3.8 0.29-0.13 0.86-0.12 1.16 0.010zM12 21.15c-0.2 0-0.34-0.080-0.62-0.18-2.69-1.24-5.38-2.5-8.050-3.75-0.14-0.070-0.33-0.11-0.33-0.32 0-0.2 0.19-0.24 0.34-0.31 0.44-0.21 0.89-0.42 1.33-0.63 0.45-0.2 0.89-0.2 1.33 0.010 1.79 0.83 3.57 1.66 5.35 2.49 0.44 0.21 0.88 0.2 1.32 0 1.78-0.84 3.56-1.67 5.33-2.5 0.44-0.2 0.87-0.21 1.29-0.010 0.48 0.21 0.95 0.44 1.42 0.66 0.070 0.030 0.14 0.070 0.2 0.12 0.13 0.1 0.13 0.27 0 0.35-0.080 0.060-0.17 0.11-0.26 0.15-2.65 1.27-5.32 2.49-7.99 3.72-0.2 0.1-0.47 0.2-0.66 0.2zM12 16.17c-0.1 0-0.45-0.1-0.64-0.17-2.68-1.26-5.36-2.5-8.020-3.76-0.14-0.060-0.34-0.11-0.34-0.31 0-0.21 0.2-0.25 0.35-0.32 0.45-0.22 0.9-0.43 1.35-0.64 0.43-0.19 0.86-0.19 1.3 0.030 1.78 0.82 3.58 1.66 5.38 2.5 0.41 0.19 0.83 0.19 1.25 0 1.8-0.85 3.6-1.69 5.41-2.53 0.41-0.19 0.83-0.19 1.25 0 0.47 0.22 0.95 0.44 1.42 0.66 0.060 0.030 0.13 0.060 0.19 0.11 0.14 0.11 0.14 0.26-0.010 0.38-0.050 0.040-0.12 0.070-0.18 0.1-2.71 1.28-5.4 2.53-8.1 3.78-0.19 0.090-0.53 0.17-0.61 0.17z"></path>
</svg>
