<!-- Generated by IcoMoon.io -->
<svg version="1.1" xmlns="http://www.w3.org/2000/svg" width="24" height="24" viewBox="0 0 24 24">
<title>bullhorn</title>
<path d="M16 12v4c0 0.552-0.448 1-1 1-0.17 0-0.33 0-0.94-0.5-0.62-0.5-1.67-1.5-2.75-2-1-0.46-2.030-0.5-3.050-0.5l1.21 3.32 0.030 0.18c0 0.276-0.224 0.5-0.5 0.5h-2c-0.22 0-0.41-0.14-0.47-0.34l-1.34-3.66h-0.19c-0.552 0-1-0.448-1-1-1.105 0-2-0.895-2-2s0.895-2 2-2c0-0.552 0.448-1 1-1h3c1.11 0 2.22 0 3.31-0.5 1.080-0.5 2.13-1.5 2.75-2 0.61-0.5 0.77-0.5 0.94-0.5 0.552 0 1 0.448 1 1v4c0.552 0 1 0.448 1 1s-0.448 1-1 1zM21 11c0 1.38-0.56 2.63-1.46 3.54l-1.42-1.42c0.54-0.54 0.88-1.29 0.88-2.12s-0.34-1.58-0.88-2.12l1.42-1.42c0.9 0.91 1.46 2.16 1.46 3.54z"></path>
</svg>
