<!-- Generated by IcoMoon.io -->
<svg version="1.1" xmlns="http://www.w3.org/2000/svg" width="24" height="24" viewBox="0 0 24 24">
<title>bus</title>
<path d="M18 11h-12v-5h12zM16.5 17c-0.828 0-1.5-0.672-1.5-1.5v0c0-0.828 0.672-1.5 1.5-1.5v0c0.828 0 1.5 0.672 1.5 1.5v0c0 0.828-0.672 1.5-1.5 1.5v0zM7.5 17c-0.828 0-1.5-0.672-1.5-1.5v0c0-0.828 0.672-1.5 1.5-1.5v0c0.828 0 1.5 0.672 1.5 1.5v0c0 0.828-0.672 1.5-1.5 1.5v0zM4 16c0 0.88 0.39 1.67 1 2.22v1.78c0 0.552 0.448 1 1 1v0h1c0.552 0 1-0.448 1-1v0-1h8v1c0 0.552 0.448 1 1 1v0h1c0.552 0 1-0.448 1-1v0-1.78c0.61-0.55 1-1.34 1-2.22v-10c0-3.5-3.58-4-8-4s-8 0.5-8 4v10z"></path>
</svg>
