<!-- Generated by IcoMoon.io -->
<svg version="1.1" xmlns="http://www.w3.org/2000/svg" width="24" height="24" viewBox="0 0 24 24">
<title>cake-variant</title>
<path d="M12 6c1.11 0 2-0.9 2-2 0-0.38-0.1-0.73-0.29-1.030l-1.71-2.97-1.71 2.97c-0.19 0.3-0.29 0.65-0.29 1.030 0 1.1 0.9 2 2 2zM16.6 16l-1.070-1.080-1.080 1.080c-1.3 1.29-3.58 1.3-4.89 0l-1.060-1.080-1.1 1.080c-0.65 0.64-1.52 1-2.44 1-0.73 0-1.4-0.23-1.96-0.61v4.61c0 0.55 0.45 1 1 1h16c0.55 0 1-0.45 1-1v-4.61c-0.56 0.38-1.23 0.61-1.96 0.61-0.92 0-1.79-0.36-2.44-1zM18 9h-5v-2h-2v2h-5c-1.66 0-3 1.34-3 3v1.54c0 1.080 0.88 1.96 1.96 1.96 0.54 0 1.040-0.2 1.38-0.57l2.16-2.13 2.11 2.13c0.74 0.74 2.030 0.74 2.77 0l2.12-2.13 2.15 2.13c0.35 0.37 0.85 0.57 1.38 0.57 1.080 0 1.97-0.88 1.97-1.96v-1.54c0-1.66-1.34-3-3-3z"></path>
</svg>
