<!-- Generated by IcoMoon.io -->
<svg version="1.1" xmlns="http://www.w3.org/2000/svg" width="24" height="24" viewBox="0 0 24 24">
<title>cake</title>
<path d="M11.5 0.5c0.5 0.25 1.5 1.9 1.5 3s-0.67 1.5-1.5 1.5c-0.83 0-1.5-0.15-1.5-1.25s1-1.75 1.5-3.25zM18.5 9c2.5 0 4.5 2 4.5 4.5 0 1.56-0.79 2.93-2 3.74v5.76h-18v-5.76c-1.21-0.81-2-2.18-2-3.74 0-2.5 2-4.5 4.5-4.5h4.5v-3h3v3h5.5zM12 16c1.381 0 2.5-1.119 2.5-2.5v0h1.5c0 1.381 1.119 2.5 2.5 2.5v0c1.381 0 2.5-1.119 2.5-2.5v0c0-1.381-1.119-2.5-2.5-2.5v0h-13c-1.381 0-2.5 1.119-2.5 2.5v0c0 1.381 1.119 2.5 2.5 2.5v0c1.381 0 2.5-1.119 2.5-2.5v0h1.5c0 1.381 1.119 2.5 2.5 2.5v0z"></path>
</svg>
