<!-- Generated by IcoMoon.io -->
<svg version="1.1" xmlns="http://www.w3.org/2000/svg" width="24" height="24" viewBox="0 0 24 24">
<title>calendar-question</title>
<path d="M6 1v2h-1c-1.11 0-2 0.9-2 2v14c0 1.105 0.895 2 2 2h14c1.105 0 2-0.895 2-2v-14c0-1.105-0.895-2-2-2h-1v-2h-2v2h-8v-2h-2zM5 8h14v11h-14v-11zM12.19 9c-0.87 0-1.57 0.2-2.11 0.59-0.52 0.41-0.78 0.98-0.77 1.77l0.010 0.030h1.93c0.010-0.3 0.1-0.53 0.28-0.69 0.18-0.15 0.4-0.23 0.66-0.23 0.31 0 0.57 0.1 0.75 0.28 0.18 0.19 0.26 0.45 0.26 0.75 0 0.32-0.070 0.59-0.23 0.82-0.14 0.23-0.35 0.43-0.61 0.59-0.51 0.34-0.86 0.64-1.050 0.91-0.2 0.26-0.31 0.68-0.31 1.18h2c0-0.31 0.040-0.56 0.13-0.74s0.26-0.36 0.51-0.52c0.45-0.24 0.82-0.53 1.11-0.93s0.44-0.81 0.44-1.31c0-0.76-0.27-1.37-0.81-1.82-0.53-0.45-1.26-0.68-2.19-0.68zM11 16v2h2v-2h-2z"></path>
</svg>
