<!-- Generated by IcoMoon.io -->
<svg version="1.1" xmlns="http://www.w3.org/2000/svg" width="24" height="24" viewBox="0 0 24 24">
<title>calendar-clock</title>
<path d="M15 13h1.5v2.82l2.44 1.41-0.75 1.3-3.19-1.84v-3.69zM19 8h-14v11h4.67c-0.43-0.91-0.67-1.93-0.67-3 0-3.866 3.134-7 7-7 1.070 0 2.090 0.24 3 0.67v-1.67zM5 21c-1.11 0-2-0.9-2-2v-14c0-1.11 0.89-2 2-2h1v-2h2v2h8v-2h2v2h1c1.105 0 2 0.895 2 2v6.1c1.24 1.26 2 2.99 2 4.9 0 3.866-3.134 7-7 7-1.91 0-3.64-0.76-4.9-2h-6.1zM16 11.15c-2.679 0-4.85 2.171-4.85 4.85 0 2.68 2.17 4.85 4.85 4.85 2.679 0 4.85-2.171 4.85-4.85 0-2.68-2.17-4.85-4.85-4.85z"></path>
</svg>
