<!-- Generated by IcoMoon.io -->
<svg version="1.1" xmlns="http://www.w3.org/2000/svg" width="24" height="24" viewBox="0 0 24 24">
<title>candycane</title>
<path d="M10 10c0 1.105-0.895 2-2 2v0c-1.105 0-2-0.895-2-2v0-2c0-0.63 0.1-1.23 0.27-1.8l3.73 3.73v0.070zM12 2c0.74 0 1.44 0.13 2.090 0.38l-2.12 3.62c-0.83 0-1.53 0.5-1.82 1.25l-2.91-2.91c1.1-1.42 2.82-2.34 4.76-2.34zM17.76 6.31l-3.76 3.76v-2.070c0-0.38-0.1-0.73-0.28-1.030l2.11-3.59c0.91 0.75 1.59 1.77 1.93 2.93zM18 13.090l-4 4v-4.19l4-4v4.19zM18 20c0 1.105-0.895 2-2 2v0c-1.105 0-2-0.895-2-2v0-0.090l4-4v4.090z"></path>
</svg>
