<!-- Generated by IcoMoon.io -->
<svg version="1.1" xmlns="http://www.w3.org/2000/svg" width="24" height="24" viewBox="0 0 24 24">
<title>car-hatchback</title>
<path d="M16 6h-10l-5 6v3h2c0 1.657 1.343 3 3 3v0c1.657 0 3-1.343 3-3v0h6c0 1.657 1.343 3 3 3v0c1.657 0 3-1.343 3-3v0h2v-3c0-1.11-0.89-2-2-2h-2l-3-4zM6.5 7.5h4v2.5h-6l2-2.5zM12 7.5h3.5l1.96 2.5h-5.46v-2.5zM6 13.5c0.828 0 1.5 0.672 1.5 1.5v0c0 0.828-0.672 1.5-1.5 1.5v0c-0.828 0-1.5-0.672-1.5-1.5v0c0-0.828 0.672-1.5 1.5-1.5v0zM18 13.5c0.828 0 1.5 0.672 1.5 1.5v0c0 0.828-0.672 1.5-1.5 1.5v0c-0.828 0-1.5-0.672-1.5-1.5v0c0-0.828 0.672-1.5 1.5-1.5v0z"></path>
</svg>
