<!-- Generated by IcoMoon.io -->
<svg version="1.1" xmlns="http://www.w3.org/2000/svg" width="24" height="24" viewBox="0 0 24 24">
<title>car</title>
<path d="M5 11l1.5-4.5h11l1.5 4.5zM17.5 16c-0.828 0-1.5-0.672-1.5-1.5s0.672-1.5 1.5-1.5c0.828 0 1.5 0.672 1.5 1.5s-0.672 1.5-1.5 1.5zM6.5 16c-0.828 0-1.5-0.672-1.5-1.5s0.672-1.5 1.5-1.5c0.828 0 1.5 0.672 1.5 1.5s-0.672 1.5-1.5 1.5zM18.92 6c-0.2-0.58-0.76-1-1.42-1h-11c-0.66 0-1.22 0.42-1.42 1l-2.080 6v8c0 0.552 0.448 1 1 1h1c0.552 0 1-0.448 1-1v-1h12v1c0 0.552 0.448 1 1 1h1c0.552 0 1-0.448 1-1v-8l-2.080-6z"></path>
</svg>
