<!-- Generated by IcoMoon.io -->
<svg version="1.1" xmlns="http://www.w3.org/2000/svg" width="24" height="24" viewBox="0 0 24 24">
<title>cash-100</title>
<path d="M2 5h20v15h-20v-15zM20 18v-11h-16v11h16zM17 8c0 1.105 0.895 2 2 2v5c-1.105 0-2 0.895-2 2h-10c0-1.105-0.895-2-2-2v-5c1.105 0 2-0.895 2-2h10zM17 13v-1c0-1.1-0.67-2-1.5-2s-1.5 0.9-1.5 2v1c0 1.1 0.67 2 1.5 2s1.5-0.9 1.5-2zM15.5 11c0.276 0 0.5 0.224 0.5 0.5v2c0 0.276-0.224 0.5-0.5 0.5s-0.5-0.224-0.5-0.5v-2c0-0.276 0.224-0.5 0.5-0.5zM13 13v-1c0-1.1-0.67-2-1.5-2s-1.5 0.9-1.5 2v1c0 1.1 0.67 2 1.5 2s1.5-0.9 1.5-2zM11.5 11c0.276 0 0.5 0.224 0.5 0.5v2c0 0.276-0.224 0.5-0.5 0.5s-0.5-0.224-0.5-0.5v-2c0-0.276 0.224-0.5 0.5-0.5zM8 15h1v-5h-1l-1 0.5v1l1-0.5v4z"></path>
</svg>
