<!-- Generated by IcoMoon.io -->
<svg version="1.1" xmlns="http://www.w3.org/2000/svg" width="24" height="24" viewBox="0 0 24 24">
<title>chart-arc</title>
<path d="M16.18 19.6l-2.010-3.48c0.98-0.72 1.66-1.84 1.8-3.12h4.030c-0.17 2.76-1.65 5.16-3.82 6.6zM13 7.030v-4.030c4.3 0.26 7.74 3.7 8 8h-4.030c-0.23-2.090-1.88-3.74-3.97-3.97zM7 12.5c0 0.64 0.13 1.25 0.38 1.8l-3.48 2.010c-0.58-1.15-0.9-2.44-0.9-3.81 0-4.53 3.54-8.23 8-8.5v4.030c-2.25 0.25-4 2.15-4 4.47zM11.5 21c-2.97 0-5.58-1.5-7.1-3.82l3.48-2.010c0.82 1.11 2.12 1.83 3.62 1.83 0.64 0 1.25-0.13 1.8-0.38l2.010 3.48c-1.15 0.58-2.44 0.9-3.81 0.9z"></path>
</svg>
