<!-- Generated by IcoMoon.io -->
<svg version="1.1" xmlns="http://www.w3.org/2000/svg" width="24" height="24" viewBox="0 0 24 24">
<title>clippy</title>
<path d="M15 15.5c0 1.381-1.119 2.5-2.5 2.5s-2.5-1.119-2.5-2.5v-1.75c0-0.414 0.336-0.75 0.75-0.75s0.75 0.336 0.75 0.75v1.75c0 0.552 0.448 1 1 1s1-0.448 1-1v-3.61c-0.87-0.28-1.5-1.020-1.5-1.89 0-1.1 1-2 2.25-2s2.25 0.9 2.25 2c0 0.87-0.63 1.61-1.5 1.89v3.61zM8.25 8c1.25 0 2.25 0.9 2.25 2 0 0.87-0.63 1.61-1.5 1.89v5.36c0 1.795 1.455 3.25 3.25 3.25s3.25-1.455 3.25-3.25v-3.5c0-0.414 0.336-0.75 0.75-0.75s0.75 0.336 0.75 0.75v3.5c0 2.623-2.127 4.75-4.75 4.75s-4.75-2.127-4.75-4.75v-5.36c-0.87-0.28-1.5-1.020-1.5-1.89 0-1.1 1-2 2.25-2zM10.060 6.13l-0.43 1.46c-0.41-0.22-0.88-0.34-1.38-0.34-0.91 0-1.72 0.4-2.22 1.020l-1.2-0.9c0.63-0.8 1.58-1.37 2.67-1.56v-0.060c0-2.071 1.679-3.75 3.75-3.75s3.75 1.679 3.75 3.75v0.060c1.090 0.19 2.040 0.76 2.67 1.56l-1.2 0.9c-0.5-0.62-1.31-1.020-2.22-1.020-0.5 0-0.97 0.12-1.38 0.34l-0.43-1.46c0.33-0.13 0.69-0.26 1.060-0.32v-0.060c0-1.25-1-2.25-2.25-2.25s-2.25 1-2.25 2.25v0.060c0.37 0.060 0.73 0.19 1.060 0.32zM14.25 9.25c-0.55 0-1 0.34-1 0.75s0.45 0.75 1 0.75c0.55 0 1-0.34 1-0.75s-0.45-0.75-1-0.75zM8.25 9.25c-0.55 0-1 0.34-1 0.75s0.45 0.75 1 0.75c0.55 0 1-0.34 1-0.75s-0.45-0.75-1-0.75z"></path>
</svg>
