<!-- Generated by IcoMoon.io -->
<svg version="1.1" xmlns="http://www.w3.org/2000/svg" width="24" height="24" viewBox="0 0 24 24">
<title>cloud-outline</title>
<path d="M19 18h-13c-2.209 0-4-1.791-4-4s1.791-4 4-4h0.71c0.66-2.31 2.79-4 5.29-4 3.038 0 5.5 2.462 5.5 5.5v0.5h1.5c1.657 0 3 1.343 3 3s-1.343 3-3 3zM19.35 10.030c-0.68-3.44-3.71-6.030-7.35-6.030-2.89 0-5.4 1.64-6.65 4.030-3.010 0.33-5.35 2.87-5.35 5.97 0 3.314 2.686 6 6 6h13c2.761 0 5-2.239 5-5 0-2.64-2.050-4.78-4.65-4.97z"></path>
</svg>
