<!-- Generated by IcoMoon.io -->
<svg version="1.1" xmlns="http://www.w3.org/2000/svg" width="24" height="24" viewBox="0 0 24 24">
<title>coin</title>
<path d="M12 2c5.523 0 10 4.477 10 10v0c0 5.523-4.477 10-10 10v0c-5.523 0-10-4.477-10-10v0c0-5.523 4.477-10 10-10v0zM12 4c-4.418 0-8 3.582-8 8v0c0 4.418 3.582 8 8 8v0c4.418 0 8-3.582 8-8v0c0-4.418-3.582-8-8-8v0zM11 17v-1h-2v-2h4v-1h-3c-0.552 0-1-0.448-1-1v0-3c0-0.552 0.448-1 1-1v0h1v-1h2v1h2v2h-4v1h3c0.552 0 1 0.448 1 1v0 3c0 0.552-0.448 1-1 1v0h-1v1h-2z"></path>
</svg>
