<!-- Generated by IcoMoon.io -->
<svg version="1.1" xmlns="http://www.w3.org/2000/svg" width="24" height="24" viewBox="0 0 24 24">
<title>comment-question-outline</title>
<path d="M4 2c-1.105 0-2 0.895-2 2v12c0 1.105 0.895 2 2 2h4v3c0 0.552 0.448 1 1 1h0.5c0.25 0 0.5-0.1 0.7-0.29l3.7-3.71h6.1c1.105 0 2-0.895 2-2v-12c0-1.11-0.9-2-2-2h-16zM4 4h16v12h-6.92l-3.080 3.080v-3.080h-6v-12zM12.19 5.5c-0.89 0-1.6 0.18-2.14 0.54-0.55 0.36-0.83 0.96-0.78 1.65-9.060 0-2.7 0 1.97 0 0-0.28 0.1-0.49 0.26-0.63 0.2-0.14 0.42-0.21 0.69-0.21 0.31 0 0.58 0.080 0.76 0.26 0.18 0.17 0.27 0.39 0.27 0.69 0 0.28-0.080 0.53-0.22 0.74-0.17 0.22-0.38 0.4-0.64 0.54-0.52 0.32-0.86 0.6-1.070 0.84-0.19 0.24-0.29 0.58-0.29 1.080h2c0-0.28 0.050-0.5 0.14-0.68 0.090-0.17 0.26-0.32 0.52-0.47 0.46-0.21 0.84-0.49 1.13-0.85 0.29-0.37 0.44-0.76 0.44-1.2 0-0.7-0.27-1.26-0.81-1.68-0.54-0.41-1.29-0.62-2.23-0.62zM11 12v2h2v-2h-2z"></path>
</svg>
