<!-- Generated by IcoMoon.io -->
<svg version="1.1" xmlns="http://www.w3.org/2000/svg" width="24" height="24" viewBox="0 0 24 24">
<title>copyright</title>
<path d="M10.080 10.86c0.050-0.33 0.16-0.62 0.3-0.86 0.12-0.26 0.34-0.47 0.59-0.63 0.24-0.15 0.53-0.22 0.91-0.23 0.23 0.010 0.44 0.050 0.62 0.13 0.21 0.090 0.39 0.23 0.53 0.36 0.14 0.15 0.25 0.33 0.34 0.53s0.13 0.42 0.13 0.64h1.8c-0.020-0.47-0.11-0.9-0.3-1.3-0.15-0.38-0.38-0.72-0.68-1-0.32-0.28-0.66-0.5-1.080-0.66s-0.88-0.23-1.39-0.23c-0.65 0-1.22 0.11-1.7 0.34s-0.88 0.55-1.2 0.92c-0.32 0.39-0.56 0.84-0.71 1.36s-0.24 1.060-0.24 1.64v0.27c0 0.58 0.080 1.12 0.23 1.64s0.39 0.97 0.71 1.35c0.32 0.37 0.72 0.69 1.2 0.91s1.050 0.34 1.7 0.34c0.47 0 0.91-0.080 1.32-0.23s0.77-0.36 1.080-0.65c0.31-0.25 0.56-0.56 0.76-0.92 0.16-0.36 0.27-0.74 0.28-1.15h-1.78c0 0.21-0.070 0.4-0.16 0.57-0.090 0.19-0.21 0.34-0.34 0.47-0.17 0.13-0.34 0.23-0.54 0.3-0.19 0.070-0.39 0.090-0.6 0.1-0.36-0.010-0.66-0.080-0.89-0.23-0.25-0.14-0.47-0.37-0.59-0.64-0.14-0.23-0.25-0.53-0.3-0.86s-0.080-0.67-0.080-1v-0.27c0-0.37 0.030-0.68 0.080-1.010zM12 2c-5.523 0-10 4.477-10 10s4.477 10 10 10c5.523 0 10-4.477 10-10s-4.477-10-10-10zM12 20c-4.41 0-8-3.59-8-8s3.59-8 8-8c4.41 0 8 3.59 8 8s-3.59 8-8 8z"></path>
</svg>
