<!-- Generated by IcoMoon.io -->
<svg version="1.1" xmlns="http://www.w3.org/2000/svg" width="24" height="24" viewBox="0 0 24 24">
<title>crosshairs-gps</title>
<path d="M12 8c2.209 0 4 1.791 4 4s-1.791 4-4 4c-2.209 0-4-1.791-4-4s1.791-4 4-4zM3.050 13h-2.050v-2h2.050c0.45-4.17 3.78-7.5 7.95-7.95v-2.050h2v2.050c4.17 0.45 7.5 3.78 7.95 7.95h2.050v2h-2.050c-0.45 4.17-3.78 7.5-7.95 7.95v2.050h-2v-2.050c-4.17-0.45-7.5-3.78-7.95-7.95zM12 5c-3.866 0-7 3.134-7 7s3.134 7 7 7c3.866 0 7-3.134 7-7s-3.134-7-7-7z"></path>
</svg>
