<!-- Generated by IcoMoon.io -->
<svg version="1.1" xmlns="http://www.w3.org/2000/svg" width="24" height="24" viewBox="0 0 24 24">
<title>dip-switch</title>
<path d="M3 4h4c0.552 0 1 0.448 1 1v0 14c0 0.552-0.448 1-1 1v0h-4c-0.552 0-1-0.448-1-1v0-14c0-0.552 0.448-1 1-1v0zM10 4h4c0.552 0 1 0.448 1 1v0 14c0 0.552-0.448 1-1 1v0h-4c-0.552 0-1-0.448-1-1v0-14c0-0.552 0.448-1 1-1v0zM17 4h4c0.552 0 1 0.448 1 1v0 14c0 0.552-0.448 1-1 1v0h-4c-0.552 0-1-0.448-1-1v0-14c0-0.552 0.448-1 1-1v0zM4 18h2v-5h-2v5zM11 11h2v-5h-2v5zM18 18h2v-5h-2v5z"></path>
</svg>
