<!-- Generated by IcoMoon.io -->
<svg version="1.1" xmlns="http://www.w3.org/2000/svg" width="24" height="24" viewBox="0 0 24 24">
<title>dumbbell</title>
<path d="M4.22 14.12l-0.72-0.71c-0.77-0.78-0.77-2.040 0-2.82 0.8-0.79 2.060-0.79 2.84 0l2.58 2.57 4.24-4.24-2.57-2.58c-0.79-0.78-0.79-2.040 0-2.84 0.78-0.77 2.040-0.77 2.82 0l0.71 0.72 5.66 5.66 0.72 0.71c0.77 0.78 0.77 2.040 0 2.82-0.8 0.79-2.060 0.79-2.84 0l-2.58-2.57-4.24 4.24 2.57 2.58c0.79 0.78 0.79 2.040 0 2.84-0.78 0.77-2.040 0.77-2.82 0l-0.71-0.72-5.66-5.66zM3.16 19.42l1.060-1.060-1.41-1.41c-0.39-0.39-0.39-1.020 0-1.41s1.020-0.39 1.41 0l4.24 4.24c0.39 0.39 0.39 1.020 0 1.41s-1.020 0.39-1.41 0l-1.41-1.41-1.060 1.060-1.42-1.42zM19.42 3.16l1.42 1.42-1.060 1.060 1.41 1.41c0.39 0.39 0.39 1.020 0 1.41-0.39 0.4-1.020 0.4-1.41 0l-4.24-4.24c-0.39-0.39-0.39-1.020 0-1.41s1.020-0.39 1.41 0l1.41 1.41 1.060-1.060z"></path>
</svg>
