<!-- Generated by IcoMoon.io -->
<svg version="1.1" xmlns="http://www.w3.org/2000/svg" width="24" height="24" viewBox="0 0 24 24">
<title>earth</title>
<path d="M17.9 17.39c-0.26-0.8-1.010-1.39-1.9-1.39h-1v-3c0-0.552-0.448-1-1-1v0h-6v-2h2c0.552 0 1-0.448 1-1v0-2h2c1.105 0 2-0.895 2-2v0-0.41c2.93 1.18 5 4.050 5 7.41 0 2.080-0.8 3.97-2.1 5.39zM11 19.93c-3.95-0.49-7-3.85-7-7.93 0-0.62 0.080-1.22 0.21-1.79l4.79 4.79v1c0 1.105 0.895 2 2 2v0zM12 2c-5.523 0-10 4.477-10 10v0c0 5.523 4.477 10 10 10v0c5.523 0 10-4.477 10-10v0c0-5.523-4.477-10-10-10v0z"></path>
</svg>
