<!-- Generated by IcoMoon.io -->
<svg version="1.1" xmlns="http://www.w3.org/2000/svg" width="24" height="24" viewBox="0 0 24 24">
<title>emoticon</title>
<path d="M12 17.5c2.33 0 4.3-1.46 5.11-3.5h-10.22c0.8 2.040 2.78 3.5 5.11 3.5zM8.5 11c0.828 0 1.5-0.672 1.5-1.5s-0.672-1.5-1.5-1.5c-0.828 0-1.5 0.672-1.5 1.5s0.672 1.5 1.5 1.5zM15.5 11c0.828 0 1.5-0.672 1.5-1.5s-0.672-1.5-1.5-1.5c-0.828 0-1.5 0.672-1.5 1.5s0.672 1.5 1.5 1.5zM12 20c-4.418 0-8-3.582-8-8s3.582-8 8-8c4.418 0 8 3.582 8 8s-3.582 8-8 8zM12 2c-5.53 0-10 4.5-10 10 0 5.523 4.477 10 10 10s10-4.477 10-10c0-5.523-4.477-10-10-10z"></path>
</svg>
