<!-- Generated by IcoMoon.io -->
<svg version="1.1" xmlns="http://www.w3.org/2000/svg" width="24" height="24" viewBox="0 0 24 24">
<title>emoticon-devil</title>
<path d="M1.5 2.090c0.9 0.91 2.37 1.64 4.19 2.16 1.72-1.41 3.92-2.25 6.31-2.25s4.59 0.84 6.31 2.25c1.82-0.52 3.29-1.25 4.19-2.16-0.030 1.63-0.85 3.12-2.22 4.31 1.090 1.6 1.72 3.52 1.72 5.6 0 5.523-4.477 10-10 10s-10-4.477-10-10c0-2.080 0.63-4 1.72-5.6-1.37-1.19-2.19-2.68-2.22-4.31zM20 12c0-4.418-3.582-8-8-8s-8 3.582-8 8c0 4.418 3.582 8 8 8s8-3.582 8-8zM10.5 10c0 0.8-0.7 1.5-1.5 1.5s-1.5-0.7-1.5-1.5v-1.5l3 1.5zM16.5 10c0 0.8-0.7 1.5-1.5 1.5s-1.5-0.7-1.5-1.5l3-1.5v1.5zM12 17.23c-1.75 0-3.29-0.73-4.19-1.81l1.42-1.42c0.45 0.72 1.52 1.23 2.77 1.23s2.32-0.51 2.77-1.23l1.42 1.42c-0.9 1.080-2.44 1.81-4.19 1.81z"></path>
</svg>
