<!-- Generated by IcoMoon.io -->
<svg version="1.1" xmlns="http://www.w3.org/2000/svg" width="24" height="24" viewBox="0 0 24 24">
<title>emoticon-poop</title>
<path d="M9 11c0.55 0 1 0.9 1 2s-0.45 2-1 2c-0.55 0-1-0.9-1-2s0.45-2 1-2zM15 11c0.55 0 1 0.9 1 2s-0.45 2-1 2c-0.55 0-1-0.9-1-2s0.45-2 1-2zM9.75 1.75c0 0 6.25 2.25 5.25 6.25 0 0 4 0 2.25 3.5 0 0 4.21 0.44 3.030 3.84-1.28 1.19-1.58 1.54-2.78 2.41l2.81-1.61c1.040 0.51 4.060 2.33 0.69 4.86-4 3-10 0.25-12 0.25s-4 0.75-5 0.75c-1 0-2-1-2-3s2-3 3-3c0 0-3-3 2-5 0 0-2-3 2-4 0 0-1-1 0-2s0.75-2.25 0.75-3.25zM8 17c1.33 1.17 2.67 2.33 4 2.33s2.67-1.16 4-2.33h-8zM9 10c-1.1 0-2 1.34-2 3s0.9 3 2 3c1.1 0 2-1.34 2-3s-0.9-3-2-3zM15 10c-1.1 0-2 1.34-2 3s0.9 3 2 3c1.1 0 2-1.34 2-3s-0.9-3-2-3z"></path>
</svg>
