<!-- Generated by IcoMoon.io -->
<svg version="1.1" xmlns="http://www.w3.org/2000/svg" width="24" height="24" viewBox="0 0 24 24">
<title>emoticon-sad</title>
<path d="M20 12c0-4.418-3.582-8-8-8s-8 3.582-8 8c0 4.418 3.582 8 8 8s8-3.582 8-8zM22 12c0 5.523-4.477 10-10 10s-10-4.477-10-10c0-5.523 4.477-10 10-10s10 4.477 10 10zM15.5 8c0.8 0 1.5 0.7 1.5 1.5s-0.7 1.5-1.5 1.5c-0.8 0-1.5-0.7-1.5-1.5s0.7-1.5 1.5-1.5zM10 9.5c0 0.8-0.7 1.5-1.5 1.5s-1.5-0.7-1.5-1.5c0-0.8 0.7-1.5 1.5-1.5s1.5 0.7 1.5 1.5zM12 14c1.75 0 3.29 0.72 4.19 1.81l-1.42 1.42c-0.45-0.73-1.52-1.23-2.77-1.23s-2.32 0.5-2.77 1.23l-1.42-1.42c0.9-1.090 2.44-1.81 4.19-1.81z"></path>
</svg>
