<!-- Generated by IcoMoon.io -->
<svg version="1.1" xmlns="http://www.w3.org/2000/svg" width="24" height="24" viewBox="0 0 24 24">
<title>emoticon-cool</title>
<path d="M19 10c0 1.38-2.12 2.5-3.5 2.5s-2.75-1.12-2.75-2.5h-1.5c0 1.38-1.37 2.5-2.75 2.5s-3.5-1.12-3.5-2.5h-0.75c-0.16 0.64-0.25 1.31-0.25 2 0 4.418 3.582 8 8 8s8-3.582 8-8c0-0.69-0.090-1.36-0.25-2h-0.75zM12 4c-2.96 0-5.55 1.61-6.93 4h13.86c-1.38-2.39-3.97-4-6.93-4zM22 12c0 5.523-4.477 10-10 10s-10-4.477-10-10c0-5.523 4.477-10 10-10s10 4.477 10 10zM12 17.23c-1.75 0-3.29-0.73-4.19-1.81l1.42-1.42c0.45 0.72 1.52 1.23 2.77 1.23s2.32-0.51 2.77-1.23l1.42 1.42c-0.9 1.080-2.44 1.81-4.19 1.81z"></path>
</svg>
