<!-- Generated by IcoMoon.io -->
<svg version="1.1" xmlns="http://www.w3.org/2000/svg" width="24" height="24" viewBox="0 0 24 24">
<title>eye-plus</title>
<path d="M12 4.5c-5 0-9.27 3.11-11 7.5 1.73 4.39 6 7.5 11 7.5 0.36 0 0.72 0 1.080-0.050-0.050-0.32-0.080-0.63-0.080-0.95 0-0.56 0.080-1.12 0.24-1.66-0.41 0.1-0.82 0.16-1.24 0.16-2.761 0-5-2.239-5-5v0c0-2.761 2.239-5 5-5v0c2.761 0 5 2.239 5 5v0c0 0.29-0.030 0.59-0.080 0.88 0.66-0.25 1.37-0.38 2.080-0.38 1.17 0 2.31 0.34 3.29 1 0.27-0.5 0.51-1 0.71-1.5-1.73-4.39-6-7.5-11-7.5zM12 9c-1.657 0-3 1.343-3 3v0c0 1.657 1.343 3 3 3v0c1.657 0 3-1.343 3-3v0c0-1.657-1.343-3-3-3v0zM18 14.5v3h-3v2h3v3h2v-3h3v-2h-3v-3h-2z"></path>
</svg>
