<!-- Generated by IcoMoon.io -->
<svg version="1.1" xmlns="http://www.w3.org/2000/svg" width="24" height="24" viewBox="0 0 24 24">
<title>eye-off</title>
<path d="M11.83 9l3.17 3.16c0-0.050 0-0.11 0-0.16 0-1.657-1.343-3-3-3-0.060 0-0.11 0-0.17 0zM7.53 9.8l1.55 1.55c-0.050 0.21-0.080 0.42-0.080 0.65 0 1.657 1.343 3 3 3 0.22 0 0.44-0.030 0.65-0.080l1.55 1.55c-0.67 0.33-1.41 0.53-2.2 0.53-2.761 0-5-2.239-5-5 0-0.79 0.2-1.53 0.53-2.2zM2 4.27l2.73 2.73c-1.65 1.3-2.95 3-3.73 5 1.73 4.39 6 7.5 11 7.5 1.55 0 3.030-0.3 4.38-0.84l0.43 0.42 2.92 2.92 1.27-1.27-17.73-17.73zM12 7c2.761 0 5 2.239 5 5 0 0.64-0.13 1.26-0.36 1.82l2.93 2.93c1.5-1.25 2.7-2.89 3.43-4.75-1.73-4.39-6-7.5-11-7.5-1.4 0-2.74 0.25-4 0.7l2.17 2.15c0.57-0.22 1.18-0.35 1.83-0.35z"></path>
</svg>
