<!-- Generated by IcoMoon.io -->
<svg version="1.1" xmlns="http://www.w3.org/2000/svg" width="24" height="24" viewBox="0 0 24 24">
<title>face</title>
<path d="M9 11.75c-0.69 0-1.25 0.56-1.25 1.25s0.56 1.25 1.25 1.25c0.69 0 1.25-0.56 1.25-1.25s-0.56-1.25-1.25-1.25zM15 11.75c-0.69 0-1.25 0.56-1.25 1.25s0.56 1.25 1.25 1.25c0.69 0 1.25-0.56 1.25-1.25s-0.56-1.25-1.25-1.25zM12 2c-5.523 0-10 4.477-10 10s4.477 10 10 10c5.523 0 10-4.477 10-10s-4.477-10-10-10zM12 20c-4.41 0-8-3.59-8-8 0-0.29 0-0.58 0.050-0.86 2.36-1.050 4.23-2.98 5.21-5.37 1.81 2.56 4.79 4.23 8.16 4.23 0.78 0 1.53-0.090 2.25-0.26 0.21 0.71 0.33 1.47 0.33 2.26 0 4.41-3.59 8-8 8z"></path>
</svg>
