<!-- Generated by IcoMoon.io -->
<svg version="1.1" xmlns="http://www.w3.org/2000/svg" width="24" height="24" viewBox="0 0 24 24">
<title>fan</title>
<path d="M12 11c-0.552 0-1 0.448-1 1s0.448 1 1 1c0.552 0 1-0.448 1-1s-0.448-1-1-1zM12.5 2c4.5 0 4.61 3.57 2.25 4.75-0.99 0.49-1.43 1.54-1.62 2.47 0.48 0.2 0.9 0.51 1.22 0.91 3.7-2 7.68-1.21 7.68 2.37 0 4.5-3.57 4.6-4.75 2.23-0.5-0.99-1.56-1.43-2.49-1.62-0.2 0.48-0.51 0.89-0.91 1.23 1.99 3.69 1.2 7.66-2.38 7.66-4.5 0-4.59-3.58-2.23-4.76 0.98-0.49 1.42-1.53 1.62-2.45-0.49-0.2-0.92-0.52-1.24-0.92-3.69 1.98-7.65 1.2-7.65-2.37 0-4.5 3.56-4.61 4.74-2.24 0.5 0.99 1.55 1.42 2.48 1.61 0.19-0.48 0.51-0.9 0.92-1.22-1.99-3.69-1.2-7.65 2.36-7.65z"></path>
</svg>
