<!-- Generated by IcoMoon.io -->
<svg version="1.1" xmlns="http://www.w3.org/2000/svg" width="24" height="24" viewBox="0 0 24 24">
<title>file-pdf</title>
<path d="M14 9h5.5l-5.5-5.5v5.5zM7 2h8l6 6v12c0 1.105-0.895 2-2 2h-12c-1.11 0-2-0.9-2-2v-16c0-1.105 0.895-2 2-2zM11.93 12.44c0.41 0.9 0.93 1.64 1.53 2.15l0.41 0.32c-0.87 0.16-2.070 0.44-3.34 0.93v0l-0.11 0.040 0.5-1.040c0.45-0.87 0.78-1.66 1.010-2.4zM18.41 16.25c0.18-0.18 0.27-0.41 0.28-0.66 0.030-0.2-0.020-0.39-0.12-0.55-0.29-0.47-1.040-0.69-2.28-0.69l-1.29 0.070-0.87-0.58c-0.63-0.52-1.2-1.43-1.6-2.56l0.040-0.14c0.33-1.33 0.64-2.94-0.020-3.6-0.16-0.16-0.38-0.24-0.61-0.24h-0.24c-0.37 0-0.7 0.39-0.79 0.77-0.37 1.33-0.15 2.060 0.22 3.27v0.010c-0.25 0.88-0.57 1.9-1.080 2.93l-0.96 1.8-0.89 0.49c-1.2 0.75-1.77 1.59-1.88 2.12-0.040 0.19-0.020 0.36 0.050 0.54l0.030 0.050 0.48 0.31 0.44 0.11c0.81 0 1.73-0.95 2.97-3.070l0.18-0.070c1.030-0.33 2.31-0.56 4.030-0.75 1.030 0.51 2.24 0.74 3 0.74 0.44 0 0.74-0.11 0.91-0.3zM18 15.54l0.090 0.11c-0.010 0.1-0.040 0.11-0.090 0.13h-0.040l-0.19 0.020c-0.46 0-1.17-0.19-1.9-0.51 0.090-0.1 0.13-0.1 0.23-0.1 1.4 0 1.8 0.25 1.9 0.35zM8.83 17c-0.65 1.19-1.24 1.85-1.69 2 0.050-0.38 0.5-1.040 1.21-1.69l0.48-0.31zM11.85 10.090c-0.23-0.9-0.24-1.63-0.070-2.050l0.070-0.12 0.15 0.050c0.17 0.24 0.19 0.56 0.090 1.1l-0.030 0.16-0.16 0.82-0.050 0.040z"></path>
</svg>
