<!-- Generated by IcoMoon.io -->
<svg version="1.1" xmlns="http://www.w3.org/2000/svg" width="24" height="24" viewBox="0 0 24 24">
<title>file-hidden</title>
<path d="M13 9h1v2h-3v-4h2v2zM18.5 9l-2.12-2.12 1.25-1.25 2.37 2.37v2h-2v1h-3v-2h3.5zM13 3.5v-1.5h-1v2h1v2h-2v-2h-2v-2h-1v2h-2v1h-2v-1c0-1.11 0.89-2 2-2h8l2.36 2.36-1.25 1.25-2.11-2.11zM20 20c0 1.105-0.895 2-2 2h-2v-2h2v-1h2v1zM18 15h2v3h-2v-3zM12 22v-2h3v2h-3zM8 22v-2h3v2h-3zM6 22c-1.11 0-2-0.9-2-2v-2h2v2h1v2h-1zM4 14h2v3h-2v-3zM4 10h2v3h-2v-3zM18 11h2v3h-2v-3zM4 6h2v3h-2v-3z"></path>
</svg>
