<!-- Generated by IcoMoon.io -->
<svg version="1.1" xmlns="http://www.w3.org/2000/svg" width="24" height="24" viewBox="0 0 24 24">
<title>fire</title>
<path d="M11.71 19c-1.78 0-3.21-1.41-3.21-3.14 0-1.62 1.030-2.76 2.8-3.12s3.6-1.21 4.62-2.58c0.39 1.29 0.58 2.65 0.58 4.040 0 2.64-2.14 4.8-4.79 4.8zM13.5 0.67c0 0 0.74 2.65 0.74 4.8 0 2.060-1.35 3.73-3.41 3.73-2.070 0-3.63-1.67-3.63-3.73l0.030-0.37c-2.020 2.4-3.23 5.51-3.23 8.9 0 4.418 3.582 8 8 8s8-3.582 8-8c0-5.4-2.59-10.2-6.5-13.33z"></path>
</svg>
