<!-- Generated by IcoMoon.io -->
<svg version="1.1" xmlns="http://www.w3.org/2000/svg" width="24" height="24" viewBox="0 0 24 24">
<title>flower</title>
<path d="M3 13c0 4.971 4.029 9 9 9 0-5-4.030-9-9-9zM12 5.5c1.381 0 2.5 1.119 2.5 2.5s-1.119 2.5-2.5 2.5c-1.381 0-2.5-1.119-2.5-2.5s1.119-2.5 2.5-2.5zM5.6 10.25c0 1.381 1.119 2.5 2.5 2.5 0.53 0 1.020-0.17 1.4-0.44 0 0.060 0 0.12 0 0.19 0 1.381 1.119 2.5 2.5 2.5s2.5-1.119 2.5-2.5c0-0.070 0-0.13 0-0.19 0.38 0.27 0.87 0.44 1.4 0.44 1.38 0 2.5-1.12 2.5-2.5 0-1-0.59-1.85-1.43-2.25 0.84-0.4 1.43-1.26 1.43-2.25 0-1.38-1.12-2.5-2.5-2.5-0.53 0-1.020 0.16-1.4 0.44 0-0.060 0-0.13 0-0.19 0-1.381-1.119-2.5-2.5-2.5s-2.5 1.119-2.5 2.5c0 0.060 0 0.13 0 0.19-0.38-0.28-0.87-0.44-1.4-0.44-1.381 0-2.5 1.119-2.5 2.5 0 0.99 0.59 1.85 1.43 2.25-0.84 0.4-1.43 1.25-1.43 2.25zM12 22c4.971 0 9-4.029 9-9-5 0-9 4-9 9z"></path>
</svg>
