<!-- Generated by IcoMoon.io -->
<svg version="1.1" xmlns="http://www.w3.org/2000/svg" width="24" height="24" viewBox="0 0 24 24">
<title>format-superscript</title>
<path d="M16 7.41l-4.59 4.59 4.59 4.59-1.41 1.41-4.59-4.59-4.59 4.59-1.41-1.41 4.59-4.59-4.59-4.59 1.41-1.41 4.59 4.59 4.59-4.59 1.41 1.41zM21.85 9h-4.88v-1l0.89-0.82c0.76-0.64 1.32-1.18 1.7-1.63 0.37-0.44 0.56-0.85 0.57-1.23 0.010-0.28-0.080-0.52-0.27-0.7-0.18-0.19-0.47-0.28-0.86-0.29-0.31 0.010-0.58 0.070-0.84 0.17l-0.66 0.39-0.45-1.17c0.27-0.22 0.59-0.39 0.98-0.53s0.82-0.19 1.29-0.19c0.78 0 1.38 0.2 1.78 0.61 0.4 0.39 0.62 0.93 0.62 1.57-0.010 0.56-0.19 1.080-0.54 1.55-0.34 0.48-0.76 0.93-1.27 1.36l-0.64 0.52v0.020h2.58v1.37z"></path>
</svg>
