<!-- Generated by IcoMoon.io -->
<svg version="1.1" xmlns="http://www.w3.org/2000/svg" width="24" height="24" viewBox="0 0 24 24">
<title>gamepad-variant</title>
<path d="M7 6h10c3.314 0 6 2.686 6 6s-2.686 6-6 6c-1.78 0-3.37-0.77-4.47-2h-1.060c-1.1 1.23-2.69 2-4.47 2-3.314 0-6-2.686-6-6s2.686-6 6-6zM6 9v2h-2v2h2v2h2v-2h2v-2h-2v-2h-2zM15.5 12c-0.828 0-1.5 0.672-1.5 1.5s0.672 1.5 1.5 1.5c0.828 0 1.5-0.672 1.5-1.5s-0.672-1.5-1.5-1.5zM18.5 9c-0.828 0-1.5 0.672-1.5 1.5s0.672 1.5 1.5 1.5c0.828 0 1.5-0.672 1.5-1.5s-0.672-1.5-1.5-1.5z"></path>
</svg>
