<!-- Generated by IcoMoon.io -->
<svg version="1.1" xmlns="http://www.w3.org/2000/svg" width="24" height="24" viewBox="0 0 24 24">
<title>gesture-double-tap</title>
<path d="M10 9c0-0.552 0.448-1 1-1v0c0.552 0 1 0.448 1 1v0 4.47l1.21 0.13 4.94 2.19c0.53 0.24 0.85 0.77 0.85 1.35v4.36c-0.030 0.82-0.68 1.47-1.5 1.5h-6.5c-0.38 0-0.74-0.15-1-0.43l-4.9-4.2 0.74-0.77c0.19-0.21 0.46-0.32 0.74-0.32h0.22l3.2 1.72v-10zM11 5c2.209 0 4 1.791 4 4v0c0 1.5-0.8 2.77-2 3.46v-1.22c0.61-0.55 1-1.35 1-2.24 0-1.657-1.343-3-3-3v0c-1.657 0-3 1.343-3 3v0c0 0.89 0.39 1.69 1 2.24v1.22c-1.2-0.69-2-1.96-2-3.46 0-2.209 1.791-4 4-4v0zM11 3c3.314 0 6 2.686 6 6v0c0 1.7-0.71 3.23-1.84 4.33l-1-0.45c1.12-0.92 1.84-2.32 1.84-3.88 0-2.761-2.239-5-5-5v0c-2.761 0-5 2.239-5 5v0c0 2.050 1.23 3.81 3 4.58v1.080c-2.33-0.83-4-3.050-4-5.66 0-3.314 2.686-6 6-6v0z"></path>
</svg>
