<!-- Generated by IcoMoon.io -->
<svg version="1.1" xmlns="http://www.w3.org/2000/svg" width="24" height="24" viewBox="0 0 24 24">
<title>google-maps</title>
<path d="M5 4c-1.105 0-2 0.895-2 2v10.29l8.18-8.18c-0.12-0.52-0.18-1.040-0.18-1.58 0-0.91 0.2-1.77 0.59-2.53h-6.59zM18 21c1.105 0 2-0.895 2-2v-7.14c-0.76 1.14-1.69 2.35-2.71 3.64l-0.79 1-0.78-1c-1.33-1.65-2.5-3.18-3.33-4.59-0.34-0.58-0.63-1.15-0.86-1.73l-4.070 4.070 7.75 7.75h2.79zM3 19c0 1.105 0.895 2 2 2h8.79l-7.040-7.040-3.75 3.75v1.29zM16.5 15c2.61-3.37 4.5-5.9 4.5-8.43 0-2.52-2-4.57-4.5-4.57s-4.5 2.050-4.5 4.57c0 2.53 1.87 5.060 4.5 8.43zM18.5 6.5c0 1.105-0.895 2-2 2s-2-0.895-2-2c0-1.105 0.895-2 2-2s2 0.895 2 2z"></path>
</svg>
