<!-- Generated by IcoMoon.io -->
<svg version="1.1" xmlns="http://www.w3.org/2000/svg" width="24" height="24" viewBox="0 0 24 24">
<title>google-controller</title>
<path d="M7.97 16l-2.97 3c-0.33 0.3-0.77 0.5-1.25 0.5-0.966 0-1.75-0.783-1.75-1.75v-0.25l1-7.38c0.21-2.31 2.14-4.12 4.5-4.12h9c2.36 0 4.29 1.81 4.5 4.12l1 7.38v0.25c0 0.966-0.783 1.75-1.75 1.75-0.48 0-0.92-0.2-1.25-0.5l-2.97-3h-8.060zM7 8v2h-2v1h2v2h1v-2h2v-1h-2v-2h-1zM16.5 8c-0.414 0-0.75 0.336-0.75 0.75s0.336 0.75 0.75 0.75c0.414 0 0.75-0.336 0.75-0.75s-0.336-0.75-0.75-0.75zM14.75 9.75c-0.414 0-0.75 0.336-0.75 0.75s0.336 0.75 0.75 0.75c0.414 0 0.75-0.336 0.75-0.75s-0.336-0.75-0.75-0.75zM18.25 9.75c-0.414 0-0.75 0.336-0.75 0.75s0.336 0.75 0.75 0.75c0.414 0 0.75-0.336 0.75-0.75s-0.336-0.75-0.75-0.75zM16.5 11.5c-0.414 0-0.75 0.336-0.75 0.75s0.336 0.75 0.75 0.75c0.414 0 0.75-0.336 0.75-0.75s-0.336-0.75-0.75-0.75z"></path>
</svg>
