<!-- Generated by IcoMoon.io -->
<svg version="1.1" xmlns="http://www.w3.org/2000/svg" width="24" height="24" viewBox="0 0 24 24">
<title>graphql</title>
<path d="M12 5.37l-0.44-0.060-5.56 9.59c0.24 0.21 0.4 0.48 0.47 0.78h11.060c0.070-0.3 0.23-0.57 0.47-0.78l-5.56-9.59-0.44 0.060zM6.6 16.53l4.28 2.53c0.29-0.27 0.69-0.43 1.12-0.43s0.83 0.16 1.12 0.43l4.28-2.53h-10.8zM12 22c-0.928 0-1.68-0.752-1.68-1.68v0l0.090-0.56-4.3-2.55c-0.31 0.36-0.76 0.58-1.27 0.58-0.928 0-1.68-0.752-1.68-1.68v0c0-0.79 0.53-1.45 1.26-1.64v-5.11c-0.83-0.11-1.47-0.82-1.47-1.68 0-0.928 0.752-1.68 1.68-1.68v0c0.55 0 1.030 0.26 1.34 0.66l4.41-2.53-0.060-0.45c0-0.93 0.75-1.68 1.68-1.68s1.68 0.75 1.68 1.68l-0.060 0.45 4.41 2.53c0.31-0.4 0.79-0.66 1.34-0.66 0.928 0 1.68 0.752 1.68 1.68v0c0 0.86-0.64 1.57-1.47 1.68v5.11c0.73 0.19 1.26 0.85 1.26 1.64 0 0.928-0.752 1.68-1.68 1.68v0c-0.51 0-0.96-0.22-1.27-0.58l-4.3 2.55 0.090 0.56c0 0.928-0.752 1.68-1.68 1.68v0zM10.8 4.86l-4.5 2.58 0.020 0.24c0 0.71-0.44 1.32-1.060 1.57l0.030 5.25 5.51-9.64zM13.2 4.86l5.51 9.64 0.030-5.25c-0.62-0.25-1.060-0.86-1.060-1.57l0.020-0.24-4.5-2.58z"></path>
</svg>
