<!-- Generated by IcoMoon.io -->
<svg version="1.1" xmlns="http://www.w3.org/2000/svg" width="24" height="24" viewBox="0 0 24 24">
<title>headphones-off</title>
<path d="M12 1c-4.971 0-9 4.029-9 9v0 7c0 0.62 0.19 1.19 0.5 1.67l5.5-5.49v-1.18h-4v-2c0-3.866 3.134-7 7-7v0c2 0 3.77 0.82 5.040 2.14l1.41-1.42c-1.63-1.68-3.92-2.72-6.45-2.72zM21.22 3.5l-17.72 17.72 1.27 1.28 2.5-2.5h1.73v-1.73l6-6v7.73h3c1.657 0 3-1.343 3-3v0-7c0-1.11-0.2-2.18-0.57-3.16l2.070-2.070-1.28-1.27zM18.83 8.44c0.11 0.5 0.17 1.020 0.17 1.56v2h-3.73l3.56-3.56z"></path>
</svg>
