<!-- Generated by IcoMoon.io -->
<svg version="1.1" xmlns="http://www.w3.org/2000/svg" width="24" height="24" viewBox="0 0 24 24">
<title>heart-pulse</title>
<path d="M7.5 4c-3.038 0-5.5 2.462-5.5 5.5v0c0 0.5 0.090 1 0.22 1.5h4.080l1.27-3.37c0.3-0.8 1.48-0.88 1.86 0l2.070 5.37 0.59-1.42c0.13-0.33 0.48-0.58 0.91-0.58h8.78c0.13-0.5 0.22-1 0.22-1.5 0-3.038-2.462-5.5-5.5-5.5v0c-1.86 0-3.5 0.93-4.5 2.34-1-1.41-2.64-2.34-4.5-2.34v0zM3 12.5c-0.552 0-1 0.448-1 1v0c0 0.552 0.448 1 1 1v0h2.44l5.56 5.5c1 0.9 1 0.9 2 0l5.56-5.5h2.44c0.552 0 1-0.448 1-1v0c0-0.552-0.448-1-1-1v0h-7.6l-0.93 2.3c-0.4 1.010-1.55 0.87-1.92 0.030l-2.050-5.33-0.96 2.33c-0.15 0.38-0.49 0.67-0.94 0.67h-3.6z"></path>
</svg>
