<!-- Generated by IcoMoon.io -->
<svg version="1.1" xmlns="http://www.w3.org/2000/svg" width="24" height="24" viewBox="0 0 24 24">
<title>heart-outline</title>
<path d="M12.1 18.55l-0.1 0.1-0.11-0.1c-4.75-4.31-7.89-7.16-7.89-10.050 0-2 1.5-3.5 3.5-3.5 1.54 0 3.040 1 3.57 2.36h1.86c0.53-1.36 2.030-2.36 3.57-2.36 2 0 3.5 1.5 3.5 3.5 0 2.89-3.14 5.74-7.9 10.050zM16.5 3c-1.74 0-3.41 0.81-4.5 2.080-1.090-1.27-2.76-2.080-4.5-2.080-3.080 0-5.5 2.41-5.5 5.5 0 3.77 3.4 6.86 8.55 11.53l1.45 1.32 1.45-1.32c5.15-4.67 8.55-7.76 8.55-11.53 0-3.090-2.42-5.5-5.5-5.5z"></path>
</svg>
