<!-- Generated by IcoMoon.io -->
<svg version="1.1" xmlns="http://www.w3.org/2000/svg" width="24" height="24" viewBox="0 0 24 24">
<title>help-circle</title>
<path d="M15.070 11.25l-0.9 0.92c-0.72 0.72-1.17 1.33-1.17 2.83h-2v-0.5c0-1.11 0.45-2.11 1.17-2.83l1.24-1.26c0.37-0.36 0.59-0.86 0.59-1.41 0-1.11-0.9-2-2-2-1.105 0-2 0.895-2 2h-2c0-2.209 1.791-4 4-4s4 1.791 4 4c0 0.88-0.36 1.67-0.93 2.25zM13 19h-2v-2h2zM12 2c-5.523 0-10 4.477-10 10s4.477 10 10 10c5.523 0 10-4.477 10-10 0-5.53-4.5-10-10-10z"></path>
</svg>
