<!-- Generated by IcoMoon.io -->
<svg version="1.1" xmlns="http://www.w3.org/2000/svg" width="24" height="24" viewBox="0 0 24 24">
<title>incognito</title>
<path d="M12 3c-2.69 0-4.59 1.22-4.59 1.22l-1.41 4.78h12l-1.41-4.78c0 0-1.9-1.22-4.59-1.22zM12 11c-2.73 0-6.61 0.54-6.87 0.59-1.040 0.28-1.88 0.56-2.54 0.82-1.010 0.34-1.59 0.59-1.59 0.59h22c0 0-0.58-0.25-1.59-0.59-0.66-0.26-1.52-0.54-2.57-0.82 0 0-4.020-0.59-6.84-0.59zM7.5 14c-1.933 0-3.5 1.567-3.5 3.5s1.567 3.5 3.5 3.5c1.933 0 3.5-1.567 3.5-3.5 0-0.16 0-0.32-0.030-0.47 0.32-0.070 0.66-0.13 1.030-0.12 0.37 0 0.71 0.050 1.030 0.12-0.030 0.15-0.030 0.31-0.030 0.47 0 1.933 1.567 3.5 3.5 3.5s3.5-1.567 3.5-3.5c0-1.933-1.567-3.5-3.5-3.5-1.47 0-2.73 0.9-3.25 2.19-0.32-0.1-0.7-0.19-1.25-0.19s-0.93 0.090-1.25 0.19c-0.52-1.29-1.78-2.19-3.25-2.19zM7.5 15c1.381 0 2.5 1.119 2.5 2.5s-1.119 2.5-2.5 2.5c-1.381 0-2.5-1.119-2.5-2.5s1.119-2.5 2.5-2.5zM16.5 15c1.381 0 2.5 1.119 2.5 2.5s-1.119 2.5-2.5 2.5c-1.381 0-2.5-1.119-2.5-2.5s1.119-2.5 2.5-2.5z"></path>
</svg>
