<!-- Generated by IcoMoon.io -->
<svg version="1.1" xmlns="http://www.w3.org/2000/svg" width="24" height="24" viewBox="0 0 24 24">
<title>itunes</title>
<path d="M7.85 17.070c-0.82 0.1-4.35 0.6-3.79 3.19 0.63 3.040 5.81 2.33 5.77-1.26-0.020-2.43 0-9.8 0-9.8s-0.070-0.67 0.6-0.81l7.76-1.6c0 0 0.64-0.14 0.64 0.5 0 0.6 0 6.91 0 6.91s0.070 0.63-0.71 0.8c-0.78 0.12-4.21 0.4-3.93 3 0.31 3.070 5.81 2.65 5.81-0.93v-14.46c0 0 0.040-0.99-1.1-0.74l-9.4 1.91c0 0-0.84 0.18-0.84 0.99 0 0.73 0 11.34 0 11.34s0 0.85-0.81 0.96z"></path>
</svg>
