<!-- Generated by IcoMoon.io -->
<svg version="1.1" xmlns="http://www.w3.org/2000/svg" width="24" height="24" viewBox="0 0 24 24">
<title>kettle</title>
<path d="M12.5 3c-4.69 0-8.5 2.69-8.5 6v0c0 1.19 0.5 2.34 1.44 3.33-0.91 1.17-1.44 2.63-1.44 4.17 0 1.14 0 2.33 0 3.5 0 1.11 0.89 2 2 2h13c1.11 0 2-0.89 2-2 0-1.15 0-2.39 0-3.5 0-1.22-0.34-2.43-1-3.5l2-2-3-3-2.1 2.1c-1.32-0.72-2.85-1.1-4.4-1.1-1.85 0-3.55 0.53-4.95 1.41-0.36-0.44-0.55-0.91-0.55-1.41 0-1.79 2.46-3.25 5.5-3.25v0c1.43 0 2.8 0.33 3.83 0.92l2.020-2.020c-1.58-1.060-3.67-1.65-5.85-1.65zM12.5 11c0.34 0 0.67 0.040 1 0.090-3.11 0.48-5.5 3.16-5.5 6.41v2.5h-2v-2.5c0-3.59 2.91-6.5 6.5-6.5v0z"></path>
</svg>
