<!-- Generated by IcoMoon.io -->
<svg version="1.1" xmlns="http://www.w3.org/2000/svg" width="24" height="24" viewBox="0 0 24 24">
<title>lightbulb-on-outline</title>
<path d="M20 11h3v2h-3v-2zM1 11h3v2h-3v-2zM13 1v3h-2v-3h2zM4.92 3.5l2.13 2.14-1.42 1.41-2.13-2.12 1.42-1.43zM16.95 5.63l2.12-2.13 1.43 1.43-2.13 2.12-1.42-1.42zM12 6c3.314 0 6 2.686 6 6v0c0 2.22-1.21 4.16-3 5.2v1.8c0 0.552-0.448 1-1 1v0h-4c-0.552 0-1-0.448-1-1v0-1.8c-1.79-1.040-3-2.98-3-5.2 0-3.314 2.686-6 6-6v0zM14 21v1c0 0.552-0.448 1-1 1v0h-2c-0.552 0-1-0.448-1-1v0-1h4zM11 18h2v-2.13c1.73-0.44 3-2.010 3-3.87 0-2.209-1.791-4-4-4v0c-2.209 0-4 1.791-4 4v0c0 1.86 1.27 3.43 3 3.87v2.13z"></path>
</svg>
