<!-- Generated by IcoMoon.io -->
<svg version="1.1" xmlns="http://www.w3.org/2000/svg" width="24" height="24" viewBox="0 0 24 24">
<title>link-variant</title>
<path d="M10.59 13.41c0.41 0.39 0.41 1.030 0 1.42-0.39 0.39-1.030 0.39-1.42 0-1.95-1.95-1.95-5.12 0-7.070v0l3.54-3.54c1.95-1.95 5.12-1.95 7.070 0s1.95 5.12 0 7.070l-1.49 1.49c0.010-0.82-0.12-1.64-0.4-2.42l0.47-0.48c1.18-1.17 1.18-3.070 0-4.24-1.17-1.18-3.070-1.18-4.24 0l-3.53 3.53c-1.18 1.17-1.18 3.070 0 4.24zM13.41 9.17c0.39-0.39 1.030-0.39 1.42 0 1.95 1.95 1.95 5.12 0 7.070v0l-3.54 3.54c-1.95 1.95-5.12 1.95-7.070 0s-1.95-5.12 0-7.070l1.49-1.49c-0.010 0.82 0.12 1.64 0.4 2.43l-0.47 0.47c-1.18 1.17-1.18 3.070 0 4.24 1.17 1.18 3.070 1.18 4.24 0l3.53-3.53c1.18-1.17 1.18-3.070 0-4.24-0.41-0.39-0.41-1.030 0-1.42z"></path>
</svg>
