<!-- Generated by IcoMoon.io -->
<svg version="1.1" xmlns="http://www.w3.org/2000/svg" width="24" height="24" viewBox="0 0 24 24">
<title>microphone-off</title>
<path d="M19 11c0 1.19-0.34 2.3-0.9 3.28l-1.23-1.23c0.27-0.62 0.43-1.31 0.43-2.050h1.7zM15 11.16l-6-5.98v-0.18c0-1.657 1.343-3 3-3v0c1.657 0 3 1.343 3 3v0 6.16zM4.27 3l16.73 16.73-1.27 1.27-4.19-4.19c-0.77 0.46-1.63 0.77-2.54 0.91v3.28h-2v-3.28c-3.28-0.49-6-3.31-6-6.72h1.7c0 3 2.54 5.1 5.3 5.1 0.81 0 1.6-0.19 2.31-0.52l-1.66-1.66-0.65 0.080c-1.657 0-3-1.343-3-3v0-0.72l-6-6.010 1.27-1.27z"></path>
</svg>
