<!-- Generated by IcoMoon.io -->
<svg version="1.1" xmlns="http://www.w3.org/2000/svg" width="24" height="24" viewBox="0 0 24 24">
<title>mushroom</title>
<path d="M12 2c5.523 0 10 4.477 10 10v0c0 1.105-0.895 2-2 2v0h-16c-1.105 0-2-0.895-2-2v0c0-5.523 4.477-10 10-10v0zM12 8c1.105 0 2-0.895 2-2v0c0-1.105-0.895-2-2-2v0c-1.105 0-2 0.895-2 2v0c0 1.105 0.895 2 2 2v0zM17 12c1.105 0 2-0.895 2-2v0c0-1.105-0.895-2-2-2v0c-1.105 0-2 0.895-2 2v0c0 1.105 0.895 2 2 2v0zM7 12c1.105 0 2-0.895 2-2v0c0-1.105-0.895-2-2-2v0c-1.105 0-2 0.895-2 2v0c0 1.105 0.895 2 2 2v0zM15 15l1.27 4.45 0.080 0.55c0 1.1-0.9 2-2 2h-4.7c-1.105 0-2-0.895-2-2v0l0.080-0.55 1.27-4.45h6z"></path>
</svg>
