<!-- Generated by IcoMoon.io -->
<svg version="1.1" xmlns="http://www.w3.org/2000/svg" width="24" height="24" viewBox="0 0 24 24">
<title>odnoklassniki</title>
<path d="M17.83 12.74c-0.28-0.57-1.070-1.050-2.12-0.24-1.43 1.14-3.71 1.14-3.71 1.14s-2.28 0-3.71-1.14c-1.050-0.81-1.84-0.33-2.12 0.24-0.5 1 0.060 1.49 1.33 2.3 1.090 0.7 2.58 0.96 3.54 1.060l-0.8 0.8c-1.14 1.13-2.24 2.22-2.99 2.98-0.45 0.46-0.45 1.19 0 1.62l0.14 0.16c0.45 0.45 1.19 0.45 1.64 0l2.97-2.98c1.15 1.13 2.24 2.22 3 2.98 0.45 0.45 1.18 0.45 1.64 0l0.13-0.16c0.46-0.43 0.46-1.16 0-1.62l-2.98-2.98-0.79-0.81c0.95-0.090 2.42-0.36 3.5-1.050 1.27-0.81 1.83-1.3 1.33-2.3zM12 4.57c1.38 0 2.5 1.12 2.5 2.49 0 1.38-1.12 2.49-2.5 2.49s-2.5-1.11-2.5-2.49c0-1.37 1.12-2.49 2.5-2.49zM12 12.12c2.8 0 5.060-2.26 5.060-5.060 0-2.79-2.26-5.060-5.060-5.060s-5.060 2.27-5.060 5.060c0 2.8 2.26 5.060 5.060 5.060z"></path>
</svg>
