<!-- Generated by IcoMoon.io -->
<svg version="1.1" xmlns="http://www.w3.org/2000/svg" width="24" height="24" viewBox="0 0 24 24">
<title>ornament</title>
<path d="M12 1c1.657 0 3 1.343 3 3v0 1c0.552 0 1 0.448 1 1v0 1.070c2.39 1.38 4 3.97 4 6.93 0 4.418-3.582 8-8 8v0c-4.418 0-8-3.582-8-8v0c0-2.96 1.61-5.55 4-6.93v-1.070c0-0.552 0.448-1 1-1v0-1c0-1.657 1.343-3 3-3v0zM12 3c-0.552 0-1 0.448-1 1v0 1h2v-1c0-0.552-0.448-1-1-1v0zM12 8c-1.78 0-3.37 0.77-4.47 2h8.94c-1.1-1.23-2.69-2-4.47-2zM6.34 16h1.25l-1.59-1.57c0.050 0.57 0.17 1.070 0.34 1.57zM12.59 16l-4-4h-2.18l4 4h2.18zM17.66 12h-1.25l1.59 1.57c-0.050-0.57-0.17-1.070-0.34-1.57zM11.41 12l4 4h2.18l-4-4h-2.18zM12 20c1.78 0 3.37-0.77 4.47-2h-8.94c1.1 1.23 2.69 2 4.47 2z"></path>
</svg>
