<!-- Generated by IcoMoon.io -->
<svg version="1.1" xmlns="http://www.w3.org/2000/svg" width="24" height="24" viewBox="0 0 24 24">
<title>ornament-variant</title>
<path d="M12 1c1.657 0 3 1.343 3 3v1c0.552 0 1 0.448 1 1v1.070c2.39 1.38 4 3.97 4 6.93 0 4.418-3.582 8-8 8s-8-3.582-8-8c0-2.96 1.61-5.55 4-6.93v-1.070c0-0.552 0.448-1 1-1v-1c0-1.657 1.343-3 3-3zM12 3c-0.552 0-1 0.448-1 1v1h2v-1c0-0.552-0.448-1-1-1zM12 8c-1.78 0-3.37 0.77-4.47 2h8.94c-1.1-1.23-2.69-2-4.47-2zM12 20c1.78 0 3.37-0.77 4.47-2h-8.94c1.1 1.23 2.69 2 4.47 2zM12 12c-1.105 0-2 0.895-2 2s0.895 2 2 2c1.105 0 2-0.895 2-2s-0.895-2-2-2zM18 14c0-0.69-0.12-1.35-0.33-2-0.95 0.19-1.67 1-1.67 2s0.72 1.81 1.67 1.97c0.21-0.62 0.33-1.28 0.33-1.97zM6 14c0 0.69 0.12 1.35 0.33 1.97 0.95-0.16 1.67-0.97 1.67-1.97s-0.72-1.81-1.67-2c-0.21 0.65-0.33 1.31-0.33 2z"></path>
</svg>
