<!-- Generated by IcoMoon.io -->
<svg version="1.1" xmlns="http://www.w3.org/2000/svg" width="24" height="24" viewBox="0 0 24 24">
<title>palette</title>
<path d="M17.5 12c-0.828 0-1.5-0.672-1.5-1.5s0.672-1.5 1.5-1.5c0.828 0 1.5 0.672 1.5 1.5s-0.672 1.5-1.5 1.5zM14.5 8c-0.828 0-1.5-0.672-1.5-1.5s0.672-1.5 1.5-1.5c0.828 0 1.5 0.672 1.5 1.5s-0.672 1.5-1.5 1.5zM9.5 8c-0.828 0-1.5-0.672-1.5-1.5s0.672-1.5 1.5-1.5c0.828 0 1.5 0.672 1.5 1.5s-0.672 1.5-1.5 1.5zM6.5 12c-0.828 0-1.5-0.672-1.5-1.5s0.672-1.5 1.5-1.5c0.828 0 1.5 0.672 1.5 1.5s-0.672 1.5-1.5 1.5zM12 3c-4.971 0-9 4.029-9 9s4.029 9 9 9c0.828 0 1.5-0.672 1.5-1.5 0-0.39-0.15-0.74-0.39-1-0.23-0.27-0.38-0.62-0.38-1 0-0.828 0.672-1.5 1.5-1.5h1.77c2.761 0 5-2.239 5-5 0-4.42-4.030-8-9-8z"></path>
</svg>
