<!-- Generated by IcoMoon.io -->
<svg version="1.1" xmlns="http://www.w3.org/2000/svg" width="24" height="24" viewBox="0 0 24 24">
<title>paw</title>
<path d="M8.35 3c1.18-0.17 2.43 1.12 2.79 2.9 0.36 1.77-0.29 3.35-1.47 3.53-1.17 0.18-2.43-1.11-2.8-2.89-0.37-1.77 0.3-3.35 1.48-3.54zM15.5 3c1.19 0.19 1.85 1.77 1.5 3.54-0.38 1.78-1.63 3.070-2.81 2.89-1.19-0.18-1.84-1.76-1.47-3.53 0.36-1.78 1.61-3.070 2.78-2.9zM3 7.6c1.14-0.49 2.69 0.4 3.5 1.95 0.76 1.58 0.5 3.24-0.63 3.73s-2.67-0.39-3.46-1.96c-0.79-1.57-0.51-3.24 0.59-3.72zM21 7.6c1.1 0.48 1.38 2.15 0.59 3.72s-2.33 2.45-3.46 1.96c-1.13-0.49-1.39-2.15-0.63-3.73 0.81-1.55 2.36-2.44 3.5-1.95zM19.33 18.38c0.040 0.94-0.68 1.98-1.54 2.37-1.79 0.82-3.91-0.88-5.9-0.88s-4.13 1.77-5.89 0.88c-1-0.49-1.69-1.79-1.56-2.87 0.18-1.49 1.97-2.29 3.030-3.38 1.41-1.41 2.41-4.060 4.42-4.060 2 0 3.060 2.61 4.41 4.060 1.11 1.22 2.96 2.25 3.030 3.88z"></path>
</svg>
