<!-- Generated by IcoMoon.io -->
<svg version="1.1" xmlns="http://www.w3.org/2000/svg" width="24" height="24" viewBox="0 0 24 24">
<title>phone-incoming</title>
<path d="M4 3c-0.552 0-1 0.448-1 1 0 9.389 7.611 17 17 17 0.552 0 1-0.448 1-1v-3.5c0-0.552-0.448-1-1-1-1.25 0-2.45-0.2-3.57-0.57-0.35-0.11-0.74-0.030-1.020 0.24l-2.2 2.2c-2.83-1.44-5.15-3.75-6.59-6.59l2.2-2.21c0.28-0.26 0.36-0.65 0.25-1-0.37-1.12-0.57-2.32-0.57-3.57 0-0.552-0.448-1-1-1h-3.5zM19 11v-1.5h-3.5l5.5-5.5-1-1-5.5 5.5v-3.5h-1.5v6h6z"></path>
</svg>
