<!-- Generated by IcoMoon.io -->
<svg version="1.1" xmlns="http://www.w3.org/2000/svg" width="24" height="24" viewBox="0 0 24 24">
<title>phone-classic</title>
<path d="M12 3c-4.54 0-8.66 1.78-11.71 4.67-0.18 0.18-0.29 0.43-0.29 0.71s0.11 0.53 0.29 0.71l2.48 2.48c0.18 0.18 0.43 0.29 0.73 0.29 0.25 0 0.5-0.11 0.68-0.28 0.79-0.74 1.69-1.36 2.66-1.85 0.33-0.16 0.56-0.5 0.56-0.9v-3.1c1.45-0.48 2.99-0.73 4.6-0.73 1.59 0 3.14 0.25 4.59 0.72v3.1c0 0.39 0.23 0.74 0.56 0.9 0.98 0.49 1.85 1.12 2.67 1.85 0.18 0.18 0.43 0.28 0.68 0.28 0.3 0 0.55-0.11 0.73-0.29l2.48-2.48c0.18-0.18 0.29-0.43 0.29-0.71s-0.12-0.52-0.3-0.7c-3.050-2.89-7.17-4.67-11.7-4.67zM9 7v3c0 0-6 5-6 8v4h18v-4c0-3-6-8-6-8v-3h-2v2h-2v-2h-2zM12 12c2.209 0 4 1.791 4 4v0c0 2.209-1.791 4-4 4v0c-2.209 0-4-1.791-4-4v0c0-2.209 1.791-4 4-4v0zM12 13.5c-1.381 0-2.5 1.119-2.5 2.5v0c0 1.381 1.119 2.5 2.5 2.5v0c1.381 0 2.5-1.119 2.5-2.5v0c0-1.381-1.119-2.5-2.5-2.5v0z"></path>
</svg>
