<!-- Generated by IcoMoon.io -->
<svg version="1.1" xmlns="http://www.w3.org/2000/svg" width="24" height="24" viewBox="0 0 24 24">
<title>phone-missed</title>
<path d="M23.71 16.67c-3.050-2.9-7.17-4.67-11.71-4.67s-8.66 1.77-11.71 4.67c-0.18 0.18-0.29 0.43-0.29 0.71 0 0.27 0.11 0.52 0.29 0.7l2.48 2.48c0.18 0.18 0.43 0.3 0.73 0.3 0.25 0 0.5-0.11 0.68-0.29 0.79-0.74 1.68-1.36 2.66-1.85 0.33-0.16 0.56-0.5 0.56-0.9v-3.1c1.45-0.47 2.99-0.72 4.6-0.72 1.6 0 3.15 0.25 4.6 0.72v3.1c0 0.4 0.23 0.74 0.56 0.9 0.98 0.49 1.87 1.11 2.66 1.85 0.18 0.18 0.43 0.29 0.68 0.29 0.3 0 0.55-0.12 0.73-0.3l2.48-2.48c0.18-0.18 0.29-0.43 0.29-0.7 0-0.28-0.11-0.53-0.29-0.71zM6.5 5.5l5.5 5.5 7-7-1-1-6 6-4.5-4.5h3.5v-1.5h-6v6h1.5v-3.5z"></path>
</svg>
