<!-- Generated by IcoMoon.io -->
<svg version="1.1" xmlns="http://www.w3.org/2000/svg" width="24" height="24" viewBox="0 0 24 24">
<title>phone-paused</title>
<path d="M19 10h2v-7h-2zM20 15.5c-1.25 0-2.45-0.2-3.57-0.57-0.35-0.11-0.74-0.030-1.020 0.25l-2.2 2.2c-2.83-1.44-5.15-3.76-6.59-6.59l2.2-2.2c0.28-0.28 0.36-0.67 0.25-1.020-0.37-1.12-0.57-2.32-0.57-3.57 0-0.552-0.448-1-1-1h-3.5c-0.552 0-1 0.448-1 1 0 9.389 7.611 17 17 17 0.552 0 1-0.448 1-1v-3.5c0-0.552-0.448-1-1-1zM17 3h-2v7h2v-7z"></path>
</svg>
