<!-- Generated by IcoMoon.io -->
<svg version="1.1" xmlns="http://www.w3.org/2000/svg" width="24" height="24" viewBox="0 0 24 24">
<title>presentation-play</title>
<path d="M2 3h8c0-1.105 0.895-2 2-2s2 0.895 2 2h8v2h-1v11h-5.75l1.75 6h-2l-1.75-6h-2.5l-1.75 6h-2l1.75-6h-5.75v-11h-1v-2zM5 5v9h14v-9h-14zM11.85 11.85c-0.090 0.090-0.21 0.15-0.35 0.15-0.276 0-0.5-0.224-0.5-0.5v-4c0-0.276 0.224-0.5 0.5-0.5 0.14 0 0.26 0.060 0.35 0.15l1.4 1.39c0.32 0.32 0.64 0.64 0.64 0.96s-0.32 0.64-0.64 0.96l-1.4 1.39z"></path>
</svg>
