<!-- Generated by IcoMoon.io -->
<svg version="1.1" xmlns="http://www.w3.org/2000/svg" width="24" height="24" viewBox="0 0 24 24">
<title>rocket</title>
<path d="M2.81 14.12l2.83-2.83 2.53-0.5c3.22-4.38 9.38-6.57 11.61-6.57 0 2.23-2.19 8.39-6.57 11.61l-0.5 2.53-2.83 2.83-0.71-3.53c-1.41 0-1.41 0-2.12-0.71s-0.71-0.71-0.71-2.12l-3.53-0.71zM5.64 16.95l1.41 1.41-2.66 2.67h-1.42v-1.42l2.67-2.66zM4.22 15.54l1.24 0.17-2.46 2.45v-1.42l1.22-1.2zM8.29 18.54l0.17 1.24-1.2 1.22h-1.42l2.45-2.46zM13 9.5c-0.828 0-1.5 0.672-1.5 1.5s0.672 1.5 1.5 1.5c0.828 0 1.5-0.672 1.5-1.5s-0.672-1.5-1.5-1.5z"></path>
</svg>
