<!-- Generated by IcoMoon.io -->
<svg version="1.1" xmlns="http://www.w3.org/2000/svg" width="24" height="24" viewBox="0 0 24 24">
<title>rotate-left</title>
<path d="M13 4.070v-3.070l-4.55 4.55 4.55 4.45v-3.91c2.84 0.48 5 2.94 5 5.91s-2.16 5.43-5 5.91v2.020c3.95-0.49 7-3.85 7-7.93s-3.050-7.44-7-7.93zM7.1 18.32c1.16 0.9 2.51 1.44 3.9 1.61v-2.030c-0.87-0.15-1.71-0.49-2.46-1.030l-1.44 1.45zM6.090 13h-2.020c0.17 1.39 0.72 2.73 1.62 3.89l1.41-1.42c-0.52-0.75-0.87-1.59-1.010-2.47zM7.11 8.53l-1.41-1.42c-0.9 1.16-1.46 2.5-1.63 3.89h2.020c0.14-0.87 0.49-1.72 1.020-2.47z"></path>
</svg>
