<!-- Generated by IcoMoon.io -->
<svg version="1.1" xmlns="http://www.w3.org/2000/svg" width="24" height="24" viewBox="0 0 24 24">
<title>rotate-right</title>
<path d="M16.89 15.5l1.42 1.39c0.9-1.16 1.45-2.5 1.62-3.89h-2.020c-0.14 0.87-0.48 1.72-1.020 2.5zM13 17.9v2.020c1.39-0.17 2.74-0.71 3.9-1.61l-1.44-1.44c-0.75 0.54-1.59 0.89-2.46 1.030zM19.93 11c-0.17-1.39-0.72-2.73-1.62-3.89l-1.42 1.42c0.54 0.75 0.88 1.6 1.020 2.47zM15.55 5.55l-4.55-4.55v3.070c-3.94 0.49-7 3.85-7 7.93s3.050 7.44 7 7.93v-2.020c-2.84-0.48-5-2.94-5-5.91s2.16-5.43 5-5.91v3.91l4.55-4.45z"></path>
</svg>
