<!-- Generated by IcoMoon.io -->
<svg version="1.1" xmlns="http://www.w3.org/2000/svg" width="24" height="24" viewBox="0 0 24 24">
<title>run</title>
<path d="M17.12 10l-1.080-1.82-0.73 2.87 2.49 4.54v6.41h-1.8v-5l-2.33-3.11-1.6 4.51-4.82 2.1-1.050-1.5 4.19-2.47 2.52-9.86-2.11 0.66v3.67h-1.8v-5.2l5.42-1.69 0.5-0.080c0.62 0 1.16 0.34 1.46 0.84l2 3.33h3.62v1.8h-4.88zM17 3.8c-1 0-1.8-0.8-1.8-1.8s0.8-1.8 1.8-1.8c1 0 1.8 0.8 1.8 1.8s-0.8 1.8-1.8 1.8zM7 9v2h-3c-0.552 0-1-0.448-1-1s0.448-1 1-1h3zM9.25 13l-0.5 2h-3.75c-0.552 0-1-0.448-1-1s0.448-1 1-1h4.25zM7 5v2h-4c-0.552 0-1-0.448-1-1s0.448-1 1-1h4z"></path>
</svg>
