<!-- Generated by IcoMoon.io -->
<svg version="1.1" xmlns="http://www.w3.org/2000/svg" width="24" height="24" viewBox="0 0 24 24">
<title>sale</title>
<path d="M18.65 2.85l0.61 3.86 3.51 1.79-1.77 3.5 1.78 3.5-3.54 1.79-0.61 3.86-3.89-0.61-2.77 2.76-2.78-2.8-3.86 0.64-0.62-3.89-3.49-1.78 1.78-3.5-1.77-3.47 3.51-1.81 0.61-3.83 3.87 0.64 2.78-2.81 2.77 2.77 3.88-0.61zM9.5 7c-0.828 0-1.5 0.672-1.5 1.5s0.672 1.5 1.5 1.5c0.828 0 1.5-0.672 1.5-1.5s-0.672-1.5-1.5-1.5zM14.5 14c-0.828 0-1.5 0.672-1.5 1.5s0.672 1.5 1.5 1.5c0.828 0 1.5-0.672 1.5-1.5s-0.672-1.5-1.5-1.5zM8.41 17l8.59-8.59-1.41-1.41-8.59 8.59 1.41 1.41z"></path>
</svg>
