<!-- Generated by IcoMoon.io -->
<svg version="1.1" xmlns="http://www.w3.org/2000/svg" width="24" height="24" viewBox="0 0 24 24">
<title>scale-balance</title>
<path d="M12 3c-1.27 0-2.4 0.8-2.82 2h-6.18v2h1.95l-2.95 7c-0.47 2 1 3 3.5 3s4.060-1 3.5-3l-2.95-7h3.12c0.33 0.85 0.98 1.5 1.83 1.83v11.17h-9v2h20v-2h-9v-11.18c0.85-0.32 1.5-0.97 1.82-1.82h3.13l-2.95 7c-0.47 2 1 3 3.5 3s4.060-1 3.5-3l-2.95-7h1.95v-2h-6.17c-0.43-1.2-1.56-2-2.83-2zM12 5c0.552 0 1 0.448 1 1s-0.448 1-1 1c-0.552 0-1-0.448-1-1s0.448-1 1-1zM5.5 10.25l1.5 3.75h-3l1.5-3.75zM18.5 10.25l1.5 3.75h-3l1.5-3.75z"></path>
</svg>
