<!-- Generated by IcoMoon.io -->
<svg version="1.1" xmlns="http://www.w3.org/2000/svg" width="24" height="24" viewBox="0 0 24 24">
<title>select-all</title>
<path d="M9 9h6v6h-6zM7 17h10v-10h-10zM15 5h2v-2h-2zM15 21h2v-2h-2zM19 17h2v-2h-2zM19 9h2v-2h-2zM19 21c1.105 0 2-0.895 2-2v0h-2zM19 13h2v-2h-2zM11 21h2v-2h-2zM9 3h-2v2h2zM3 17h2v-2h-2zM5 21v-2h-2c0 1.105 0.895 2 2 2v0zM19 3v2h2c0-1.105-0.895-2-2-2v0zM13 3h-2v2h2zM3 9h2v-2h-2zM7 21h2v-2h-2zM3 13h2v-2h-2zM3 5h2v-2c-1.105 0-2 0.895-2 2v0z"></path>
</svg>
