<!-- Generated by IcoMoon.io -->
<svg version="1.1" xmlns="http://www.w3.org/2000/svg" width="24" height="24" viewBox="0 0 24 24">
<title>silverware-variant</title>
<path d="M8.1 13.34l-4.19-4.18c-1.56-1.57-1.56-4.1 0-5.66l7.020 7-2.83 2.84zM13.41 13l6.88 6.88-1.41 1.41-6.88-6.88-6.88 6.88-1.41-1.41 9.65-9.66-0.2-0.22c-0.78-0.77-0.78-2.030 0-2.81l4.34-4.37 0.93 0.92-3.24 3.26 0.96 0.94 3.24-3.25 0.92 0.92-3.25 3.24 0.94 0.96 3.26-3.25 0.92 0.94-4.37 4.34c-0.78 0.78-2.040 0.78-2.81 0l-0.22-0.2-1.37 1.36z"></path>
</svg>
