<!-- Generated by IcoMoon.io -->
<svg version="1.1" xmlns="http://www.w3.org/2000/svg" width="24" height="24" viewBox="0 0 24 24">
<title>skype</title>
<path d="M18 6c2.070 2.040 2.85 4.89 2.36 7.55 0.41 0.72 0.64 1.56 0.64 2.45 0 2.761-2.239 5-5 5-0.89 0-1.73-0.23-2.45-0.64-2.66 0.49-5.51-0.29-7.55-2.36-2.070-2.040-2.85-4.89-2.36-7.55-0.41-0.72-0.64-1.56-0.64-2.45 0-2.761 2.239-5 5-5 0.89 0 1.73 0.23 2.45 0.64 2.66-0.49 5.51 0.29 7.55 2.36zM12.040 17.16c2.87 0 4.3-1.38 4.3-3.24 0-1.19-0.56-2.46-2.73-2.95l-1.99-0.44c-0.76-0.17-1.62-0.4-1.62-1.11 0-0.72 0.6-1.22 1.7-1.22 2.23 0 2.020 1.53 3.13 1.53 0.58 0 1.080-0.34 1.080-0.93 0-1.37-2.19-2.4-4.050-2.4-2.010 0-4.16 0.86-4.16 3.14 0 1.1 0.39 2.27 2.55 2.81l2.69 0.68c0.81 0.2 1.010 0.65 1.010 1.070 0 0.68-0.68 1.35-1.91 1.35-2.41 0-2.080-1.85-3.37-1.85-0.58 0-1 0.4-1 0.97 0 1.11 1.33 2.59 4.37 2.59z"></path>
</svg>
