<!-- Generated by IcoMoon.io -->
<svg version="1.1" xmlns="http://www.w3.org/2000/svg" width="24" height="24" viewBox="0 0 24 24">
<title>soccer</title>
<path d="M12 2c-5.523 0-10 4.477-10 10v0c0 5.523 4.477 10 10 10v0c5.523 0 10-4.477 10-10v0c0-5.523-4.477-10-10-10v0zM12 3c1.76 0 3.4 0.53 4.78 1.41l-0.28 0.59h-4.5l-1.72-0.84 0.35-1.030c0.45-0.080 0.9-0.13 1.37-0.13zM9.53 3.38l-0.34 1.030-2.56 1.28-1.25 0.25c1.12-1.21 2.54-2.1 4.15-2.56zM13 6h3l2.69 3.59-1.25 2.57-2.63 0.62-3.28-3.84 1.47-2.94zM6.16 6.66l0.84 3.34-1.22 3.060-2.56 0.88c-0.14-0.63-0.22-1.27-0.22-1.94 0-1.9 0.59-3.64 1.59-5.090l1.57-0.25zM20.56 9.22c0.29 0.87 0.44 1.81 0.44 2.78 0 1.44-0.37 2.79-0.97 4h-1.030l-0.84-3.34 1.5-3 0.9-0.44zM8 10h3l2.81 3.28-1.81 2.72-3.16 0.78-2.31-3.090 1.47-3.69zM12 17l3 2-0.87 1.72c-0.69 0.16-1.4 0.28-2.13 0.28-1.75 0-3.37-0.5-4.75-1.37l1.16-1.72 3.59-0.91zM19 17h0.5c-1 1.5-2.5 2.67-4.19 3.34l0.69-1.34 3-2z"></path>
</svg>
