<!-- Generated by IcoMoon.io -->
<svg version="1.1" xmlns="http://www.w3.org/2000/svg" width="24" height="24" viewBox="0 0 24 24">
<title>speedometer</title>
<path d="M12 16c-1.657 0-3-1.343-3-3 0-1.12 0.61-2.1 1.5-2.61l9.71-5.62-5.53 9.58c-0.5 0.98-1.51 1.65-2.68 1.65zM12 3c1.81 0 3.5 0.5 4.97 1.32l-2.1 1.21c-0.87-0.34-1.87-0.53-2.87-0.53-4.418 0-8 3.582-8 8 0 2.21 0.89 4.21 2.34 5.65h0.010c0.39 0.39 0.39 1.020 0 1.41s-1.030 0.39-1.42 0.010v0c-1.81-1.81-2.93-4.31-2.93-7.070 0-5.523 4.477-10 10-10zM22 13c0 2.76-1.12 5.26-2.93 7.070v0c-0.39 0.38-1.020 0.38-1.41-0.010s-0.39-1.020 0-1.41v0c1.45-1.45 2.34-3.44 2.34-5.65 0-1-0.19-2-0.54-2.9l1.21-2.1c0.83 1.5 1.33 3.18 1.33 5z"></path>
</svg>
