<!-- Generated by IcoMoon.io -->
<svg version="1.1" xmlns="http://www.w3.org/2000/svg" width="24" height="24" viewBox="0 0 24 24">
<title>sticker-emoji</title>
<path d="M5.5 2c-1.94 0-3.5 1.56-3.5 3.5v13c0 1.94 1.56 3.5 3.5 3.5h10.5l6-6v-10.5c0-1.94-1.56-3.5-3.5-3.5h-13zM5.75 4h12.5c0.966 0 1.75 0.783 1.75 1.75v0 9.25h-1.5c-1.94 0-3.5 1.56-3.5 3.5v1.5h-9.25c-0.966 0-1.75-0.783-1.75-1.75v0-12.5c0-0.966 0.783-1.75 1.75-1.75v0zM14.44 6.77c-0.16 0-0.32 0.020-0.47 0.060-0.94 0.26-1.47 1.22-1.23 2.17 0.050 0.15 0.12 0.3 0.21 0.44l3.23-0.88c0-0.17-0.020-0.34-0.060-0.51-0.21-0.75-0.9-1.28-1.68-1.28zM8.17 8.5c-0.17 0-0.32 0-0.47 0.050-0.93 0.26-1.48 1.22-1.23 2.15 0.030 0.16 0.12 0.3 0.21 0.46l3.23-0.88c0-0.17-0.020-0.34-0.060-0.5-0.21-0.78-0.9-1.28-1.68-1.28zM16.72 11.26l-9.13 2.51c1.32 1.53 3.41 2.17 5.36 1.64 1.95-0.54 3.41-2.16 3.77-4.15z"></path>
</svg>
