<!-- Generated by IcoMoon.io -->
<svg version="1.1" xmlns="http://www.w3.org/2000/svg" width="24" height="24" viewBox="0 0 24 24">
<title>subway</title>
<path d="M8.5 15c0.552 0 1 0.448 1 1v0c0 0.552-0.448 1-1 1v0c-0.552 0-1-0.448-1-1v0c0-0.552 0.448-1 1-1v0zM7 9h10v5h-10v-5zM15.5 15c0.552 0 1 0.448 1 1v0c0 0.552-0.448 1-1 1v0c-0.552 0-1-0.448-1-1v0c0-0.552 0.448-1 1-1v0zM18 15.88v-6.88c0-2.62-2.68-3-6-3-3 0-6 0.37-6 3v6.88c0 1.447 1.173 2.62 2.62 2.62v0l-1.12 1.12v0.38h1.67l1.5-1.5h2.83l1.5 1.5h1.5v-0.38l-1.13-1.12c1.45 0 2.63-1.17 2.63-2.62zM17.8 2.8c2.67 1.040 4.2 3.25 4.2 6.060v13.14h-20v-13.14c0-2.81 1.53-5.020 4.2-6.060 1.8-0.71 3.94-0.8 5.8-0.8s4 0.090 5.8 0.8z"></path>
</svg>
