<!-- Generated by IcoMoon.io -->
<svg version="1.1" xmlns="http://www.w3.org/2000/svg" width="24" height="24" viewBox="0 0 24 24">
<title>tag-text-outline</title>
<path d="M5.5 7c0.828 0 1.5-0.672 1.5-1.5s-0.672-1.5-1.5-1.5c-0.828 0-1.5 0.672-1.5 1.5s0.672 1.5 1.5 1.5zM21.41 11.58c0.36 0.36 0.59 0.86 0.59 1.42 0 0.55-0.22 1.050-0.59 1.41l-7 7c-0.36 0.36-0.86 0.59-1.41 0.59s-1.050-0.23-1.42-0.59l-8.99-9c-0.37-0.36-0.59-0.86-0.59-1.41v-7c0-1.11 0.89-2 2-2h7c0.55 0 1.050 0.22 1.41 0.58l9 9zM13 20l7-7-8.5-8.5-7 7 8.5 8.5zM10.090 8.91l1.41-1.41 5.5 5.5-1.41 1.41-5.5-5.5zM7.59 11.41l1.41-1.41 4 4-1.41 1.41-4-4z"></path>
</svg>
