<!-- Generated by IcoMoon.io -->
<svg version="1.1" xmlns="http://www.w3.org/2000/svg" width="24" height="24" viewBox="0 0 24 24">
<title>tag-faces</title>
<path d="M15 18c-3.32 0-6-2.69-6-6 0-3.32 2.68-6 6-6 3.314 0 6 2.686 6 6v0c0 3.314-2.686 6-6 6v0zM4 13c-0.552 0-1-0.448-1-1v0c0-0.552 0.448-1 1-1v0c0.552 0 1 0.448 1 1v0c0 0.552-0.448 1-1 1v0zM22 3h-14.37c-0.66 0-1.25 0.32-1.63 0.81l-6 8.19 6 8.18c0.38 0.5 0.97 0.82 1.63 0.82h14.37c1.105 0 2-0.895 2-2v0-14c0-1.11-0.9-2-2-2zM13 11c0.552 0 1-0.448 1-1v0c0-0.552-0.448-1-1-1v0c-0.552 0-1 0.448-1 1v0c0 0.552 0.448 1 1 1v0zM15 16c1.86 0 3.35-1.28 3.8-3h-7.6c0.45 1.72 1.94 3 3.8 3zM17 11c0.552 0 1-0.448 1-1v0c0-0.552-0.448-1-1-1v0c-0.552 0-1 0.448-1 1v0c0 0.552 0.448 1 1 1v0z"></path>
</svg>
