<!-- Generated by IcoMoon.io -->
<svg version="1.1" xmlns="http://www.w3.org/2000/svg" width="24" height="24" viewBox="0 0 24 24">
<title>tag-plus</title>
<path d="M21.41 11.58l-9-9c-0.37-0.37-0.88-0.58-1.41-0.58h-7c-1.105 0-2 0.895-2 2v0 7c0 0.53 0.21 1.040 0.59 1.41l0.41 0.4c0.9-0.54 1.94-0.81 3-0.81 3.314 0 6 2.686 6 6v0c0 1.060-0.28 2.090-0.82 3l0.4 0.4c0.37 0.38 0.89 0.6 1.42 0.6s1.040-0.21 1.41-0.59l7-7c0.38-0.37 0.59-0.88 0.59-1.41s-0.21-1.040-0.59-1.42zM5.5 7c-0.828 0-1.5-0.672-1.5-1.5v0c0-0.828 0.672-1.5 1.5-1.5v0c0.828 0 1.5 0.672 1.5 1.5v0c0 0.828-0.672 1.5-1.5 1.5v0zM10 19h-3v3h-2v-3h-3v-2h3v-3h2v3h3v2z"></path>
</svg>
