<!-- Generated by IcoMoon.io -->
<svg version="1.1" xmlns="http://www.w3.org/2000/svg" width="24" height="24" viewBox="0 0 24 24">
<title>thumbs-up-down</title>
<path d="M22.5 10h-6.75c-0.62 0-1.15 0.38-1.38 0.91l-2.26 5.29c-0.070 0.17-0.11 0.36-0.11 0.55v1.25c0 0.552 0.448 1 1 1v0h5.18l-0.68 3.18v0.24c0 0.31 0.13 0.58 0.33 0.8l0.79 0.78 4.94-4.94c0.27-0.27 0.44-0.65 0.44-1.060v-6.5c0-0.828-0.672-1.5-1.5-1.5v0zM12 6c0-0.552-0.448-1-1-1v0h-5.18l0.68-3.18v-0.23c0-0.31-0.13-0.59-0.33-0.8l-0.79-0.79-4.94 4.94c-0.27 0.27-0.44 0.65-0.44 1.060v6.5c0 0.828 0.672 1.5 1.5 1.5v0h6.75c0.62 0 1.15-0.38 1.38-0.91l2.26-5.29c0.070-0.17 0.11-0.36 0.11-0.55v-1.25z"></path>
</svg>
