<!-- Generated by IcoMoon.io -->
<svg version="1.1" xmlns="http://www.w3.org/2000/svg" width="24" height="24" viewBox="0 0 24 24">
<title>ticket-percent</title>
<path d="M4 4c-1.105 0-2 0.895-2 2v4c1.11 0 2 0.9 2 2 0 1.105-0.895 2-2 2v4c0 1.105 0.895 2 2 2h16c1.105 0 2-0.895 2-2v-4c-1.105 0-2-0.895-2-2 0-1.11 0.9-2 2-2v-4c0-1.11-0.9-2-2-2h-16zM15.5 7l1.5 1.5-8.5 8.5-1.5-1.5 8.5-8.5zM8.81 7.040c0.98 0 1.77 0.79 1.77 1.77 0 0.978-0.792 1.77-1.77 1.77-0.98 0-1.77-0.79-1.77-1.77 0-0.978 0.792-1.77 1.77-1.77zM15.19 13.42c0.98 0 1.77 0.79 1.77 1.77 0 0.978-0.792 1.77-1.77 1.77-0.98 0-1.77-0.79-1.77-1.77 0-0.978 0.792-1.77 1.77-1.77z"></path>
</svg>
