<!-- Generated by IcoMoon.io -->
<svg version="1.1" xmlns="http://www.w3.org/2000/svg" width="24" height="24" viewBox="0 0 24 24">
<title>timer-off</title>
<path d="M12 20c-3.866 0-7-3.134-7-7 0-1.28 0.35-2.5 0.95-3.5l9.55 9.54c-1 0.61-2.22 0.96-3.5 0.96zM3 4l-1.25 1.27 2.75 2.76c-0.95 1.42-1.5 3.13-1.5 4.97 0 4.971 4.029 9 9 9 1.84 0 3.55-0.55 5-1.5l2.5 2.5 1.25-1.27-7.71-7.73-10.040-10zM11 9.44l2 2v-3.44h-2zM15 1h-6v2h6zM19.040 4.55l-1.42 1.42c-1.55-1.23-3.5-1.97-5.62-1.97-1.83 0-3.53 0.55-4.95 1.5l1.45 1.44c1.030-0.59 2.23-0.94 3.5-0.94 3.866 0 7 3.134 7 7 0 1.27-0.35 2.47-0.94 3.5l1.44 1.44c0.95-1.41 1.5-3.11 1.5-4.94 0-2.12-0.74-4.070-1.97-5.61l1.42-1.42-1.41-1.42z"></path>
</svg>
