<!-- Generated by IcoMoon.io -->
<svg version="1.1" xmlns="http://www.w3.org/2000/svg" width="24" height="24" viewBox="0 0 24 24">
<title>truck</title>
<path d="M18 18.5c-0.828 0-1.5-0.672-1.5-1.5s0.672-1.5 1.5-1.5c0.828 0 1.5 0.672 1.5 1.5s-0.672 1.5-1.5 1.5zM19.5 9.5l1.96 2.5h-4.46v-2.5zM6 18.5c-0.828 0-1.5-0.672-1.5-1.5s0.672-1.5 1.5-1.5c0.828 0 1.5 0.672 1.5 1.5s-0.672 1.5-1.5 1.5zM20 8h-3v-4h-14c-1.11 0-2 0.89-2 2v11h2c0 1.657 1.343 3 3 3s3-1.343 3-3h6c0 1.657 1.343 3 3 3s3-1.343 3-3h2v-5l-3-4z"></path>
</svg>
