<!-- Generated by IcoMoon.io -->
<svg version="1.1" xmlns="http://www.w3.org/2000/svg" width="24" height="24" viewBox="0 0 24 24">
<title>truck-fast</title>
<path d="M3 13.5l-0.75-1.5h5.25l-0.6-1.5h-4.9l-0.75-1.5h7.8l-0.6-1.5h-7.34l-0.86-1.5h3.75c0-1.105 0.895-2 2-2v0h12v4h3l3 4v5h-2c0 1.657-1.343 3-3 3v0c-1.657 0-3-1.343-3-3v0h-4c0 1.657-1.343 3-3 3v0c-1.657 0-3-1.343-3-3v0h-2v-3.5h-1zM19 18.5c0.828 0 1.5-0.672 1.5-1.5v0c0-0.828-0.672-1.5-1.5-1.5v0c-0.828 0-1.5 0.672-1.5 1.5v0c0 0.828 0.672 1.5 1.5 1.5v0zM20.5 9.5h-2.5v2.5h4.46l-1.96-2.5zM9 18.5c0.828 0 1.5-0.672 1.5-1.5v0c0-0.828-0.672-1.5-1.5-1.5v0c-0.828 0-1.5 0.672-1.5 1.5v0c0 0.828 0.672 1.5 1.5 1.5v0z"></path>
</svg>
