<!-- Generated by IcoMoon.io -->
<svg version="1.1" xmlns="http://www.w3.org/2000/svg" width="24" height="24" viewBox="0 0 24 24">
<title>vimeo</title>
<path d="M22 7.42c-0.090 1.95-1.45 4.62-4.080 8.020-2.72 3.56-5.020 5.31-6.92 5.31-1.15 0-2.14-1.080-2.95-3.25-0.55-1.96-1.050-3.94-1.61-5.92-0.6-2.16-1.24-3.24-1.94-3.24-0.14 0-0.66 0.32-1.56 0.95l-0.94-1.22c1-0.87 1.96-1.74 2.92-2.61 1.32-1.14 2.31-1.74 2.96-1.8 1.56-0.16 2.52 0.92 2.88 3.2 0.39 2.47 0.66 4 0.81 4.6 0.43 2.040 0.93 3.040 1.48 3.040 0.42 0 1.050-0.64 1.89-1.97 0.84-1.32 1.29-2.33 1.35-3.030 0.12-1.14-0.33-1.71-1.35-1.71-0.48 0-0.97 0.11-1.48 0.33 0.98-3.23 2.86-4.8 5.63-4.71 2.060 0.060 3.030 1.4 2.91 4.010z"></path>
</svg>
