<!-- Generated by IcoMoon.io -->
<svg version="1.1" xmlns="http://www.w3.org/2000/svg" width="24" height="24" viewBox="0 0 24 24">
<title>vk</title>
<path d="M20.6 14.9c1.8 1.7 2.1 2.4 2.2 2.5 0.7 1.2-0.8 1.3-0.8 1.3h-3c0 0-0.6 0.1-1.5-0.4-1.1-0.8-2.2-2.7-3-2.5-0.8 0.3-0.8 2-0.8 2s0 0.3-0.2 0.4c-0.2 0.2-0.6 0.1-0.6 0.1h-1.3c0 0-2.9 0.3-5.5-2.4s-5.1-8.4-5.1-8.4-0.2-0.4 0-0.6c0.2-0.2 0.7-0.2 0.7-0.2h3.2c0 0 0.3 0 0.5 0.2 0.2 0.1 0.3 0.4 0.3 0.4s0.5 1.3 1.2 2.4c1.3 2.3 1.9 2.8 2.4 2.5 0.5-0.2 0.3-3.1 0.3-3.1s0-1-0.3-1.5c-0.3-0.4-0.8-0.5-1-0.5s0.1-0.4 0.5-0.6c0.6-0.3 1.6-0.3 2.8-0.3 0.9 0 1.2 0.1 1.5 0.1 1.1 0.3 0.7 1.3 0.7 3.7 0 0.8-0.1 1.9 0.4 2.2 0.2 0.2 0.8 0 2.3-2.5 0.7-1.2 1.2-2.6 1.2-2.6s0.1-0.2 0.3-0.4c0.2-0.1 0.4-0.1 0.4-0.1h3.3c0 0 1-0.1 1.2 0.3 0.2 0.5-0.4 1.6-1.7 3.4-2.1 3.2-2.4 2.9-0.6 4.6z"></path>
</svg>
