<!-- Generated by IcoMoon.io -->
<svg version="1.1" xmlns="http://www.w3.org/2000/svg" width="24" height="24" viewBox="0 0 24 24">
<title>vlc</title>
<path d="M12 1c-0.42 0-0.81 0.23-1 0.75l-1.12 3.13c0.48 0.52 1.4 0.62 2.12 0.62s1.64-0.1 2.13-0.62l-1.13-3.13c-0.18-0.5-0.58-0.75-1-0.75zM8.44 8.91l-1.44 4c1.070 1.36 3.26 1.59 5 1.59s3.93-0.23 5-1.59l-1.44-4c-0.8 0.92-2.32 1.090-3.56 1.090s-2.76-0.17-3.56-1.090zM5.44 15c-0.82 0-1.68 0.65-1.91 1.44l-1.47 5.12c-0.22 0.79 0.24 1.44 1.070 1.44h17.75c0.82 0 1.28-0.65 1.060-1.44l-1.47-5.12c-0.23-0.79-1.090-1.44-1.91-1.44h-0.81l0.34 0.97c0.12 0.32 0.2 0.72 0 1-1.25 1.73-3.95 2.030-6.090 2.030s-4.84-0.3-6.090-2.030c-0.2-0.28-0.12-0.68 0-1l0.34-0.97h-0.81z"></path>
</svg>
