<!-- Generated by IcoMoon.io -->
<svg version="1.1" xmlns="http://www.w3.org/2000/svg" width="24" height="24" viewBox="0 0 24 24">
<title>volume-off</title>
<path d="M12 4l-2.090 2.090 2.090 2.090zM4.27 3l-1.27 1.27 4.73 4.73h-4.73v6h4l5 5v-6.73l4.25 4.26c-0.67 0.51-1.42 0.93-2.25 1.17v2.070c1.38-0.32 2.63-0.95 3.68-1.81l2.050 2.040 1.27-1.27-9-9zM19 12c0 0.94-0.2 1.82-0.54 2.64l1.51 1.51c0.65-1.24 1.030-2.65 1.030-4.15 0-4.28-3-7.86-7-8.77v2.060c2.89 0.86 5 3.54 5 6.71zM16.5 12c0-1.77-1-3.29-2.5-4.030v2.21l2.45 2.45c0.050-0.2 0.050-0.42 0.050-0.63z"></path>
</svg>
