<!-- Generated by IcoMoon.io -->
<svg version="1.1" xmlns="http://www.w3.org/2000/svg" width="24" height="24" viewBox="0 0 24 24">
<title>wallet-giftcard</title>
<path d="M20 14h-16v-6h5.080l-2.080 2.83 1.62 1.17 3.38-4.6 3.38 4.6 1.62-1.17-2.080-2.83h5.080zM20 19h-16v-2h16zM9 4c0.552 0 1 0.448 1 1v0c0 0.552-0.448 1-1 1v0c-0.552 0-1-0.448-1-1v0c0-0.552 0.448-1 1-1v0zM15 4c0.552 0 1 0.448 1 1v0c0 0.552-0.448 1-1 1v0c-0.552 0-1-0.448-1-1v0c0-0.552 0.448-1 1-1v0zM20 6h-2.18c0.11-0.31 0.18-0.65 0.18-1 0-1.657-1.343-3-3-3v0c-1.050 0-1.96 0.54-2.5 1.35l-0.5 0.65-0.5-0.66c-0.54-0.8-1.45-1.34-2.5-1.34-1.657 0-3 1.343-3 3v0c0 0.35 0.070 0.69 0.18 1h-2.18c-1.11 0-2 0.89-2 2v11c0 1.11 0.89 2 2 2h16c1.11 0 2-0.89 2-2v-11c0-1.11-0.89-2-2-2z"></path>
</svg>
