<!-- Generated by IcoMoon.io -->
<svg version="1.1" xmlns="http://www.w3.org/2000/svg" width="24" height="24" viewBox="0 0 24 24">
<title>weather-snowy</title>
<path d="M6 14c0.552 0 1 0.448 1 1s-0.448 1-1 1c-2.761 0-5-2.239-5-5s2.239-5 5-5c1-2.35 3.3-4 6-4 3.43 0 6.24 2.66 6.5 6.030l0.5-0.030c2.209 0 4 1.791 4 4s-1.791 4-4 4h-1c-0.552 0-1-0.448-1-1s0.448-1 1-1h1c1.105 0 2-0.895 2-2s-0.895-2-2-2h-2v-1c0-2.761-2.239-5-5-5-2.5 0-4.55 1.82-4.94 4.19-0.33-0.12-0.69-0.19-1.060-0.19-1.657 0-3 1.343-3 3s1.343 3 3 3zM7.88 18.070l2.19-0.57-1.61-1.62c-0.39-0.38-0.39-1.020 0-1.42 0.39-0.39 1.040-0.39 1.42 0l1.62 1.61 0.57-2.19c0.14-0.54 0.69-0.85 1.22-0.71 0.54 0.14 0.85 0.69 0.71 1.23l-0.59 2.19 2.19-0.59c0.54-0.14 1.090 0.17 1.23 0.71 0.14 0.53-0.17 1.080-0.71 1.22l-2.19 0.57 1.61 1.62c0.39 0.38 0.39 1.030 0 1.42s-1.040 0.39-1.42 0l-1.62-1.61-0.57 2.19c-0.14 0.54-0.69 0.85-1.22 0.71-0.54-0.14-0.85-0.69-0.71-1.23l0.59-2.19-2.19 0.59c-0.54 0.14-1.090-0.17-1.23-0.71-0.14-0.53 0.17-1.080 0.71-1.22z"></path>
</svg>
