<!-- Generated by IcoMoon.io -->
<svg version="1.1" xmlns="http://www.w3.org/2000/svg" width="24" height="24" viewBox="0 0 24 24">
<title>weather-sunny</title>
<path d="M12 7c2.761 0 5 2.239 5 5s-2.239 5-5 5c-2.761 0-5-2.239-5-5s2.239-5 5-5zM12 9c-1.657 0-3 1.343-3 3s1.343 3 3 3c1.657 0 3-1.343 3-3s-1.343-3-3-3zM12 2l2.39 3.42c-0.74-0.27-1.55-0.42-2.39-0.42s-1.65 0.15-2.39 0.42l2.39-3.42zM3.34 7l4.16-0.35c-0.6 0.51-1.14 1.13-1.56 1.85-0.44 0.74-0.69 1.5-0.83 2.29l-1.77-3.79zM3.36 17l1.76-3.77c0.14 0.77 0.41 1.55 0.83 2.27 0.42 0.74 0.96 1.36 1.55 1.87l-4.14-0.37zM20.65 7l-1.77 3.79c-0.14-0.79-0.41-1.56-0.83-2.29-0.42-0.72-0.95-1.35-1.55-1.86l4.15 0.36zM20.64 17l-4.14 0.36c0.59-0.51 1.12-1.14 1.54-1.86 0.42-0.73 0.69-1.5 0.83-2.29l1.77 3.79zM12 22l-2.41-3.44c0.74 0.27 1.55 0.44 2.41 0.44 0.82 0 1.63-0.17 2.37-0.44l-2.37 3.44z"></path>
</svg>
