<!-- Generated by IcoMoon.io -->
<svg version="1.1" xmlns="http://www.w3.org/2000/svg" width="24" height="24" viewBox="0 0 24 24">
<title>weather-rainy</title>
<path d="M6 14c0.552 0 1 0.448 1 1s-0.448 1-1 1c-2.761 0-5-2.239-5-5s2.239-5 5-5c1-2.35 3.3-4 6-4 3.43 0 6.24 2.66 6.5 6.030l0.5-0.030c2.209 0 4 1.791 4 4s-1.791 4-4 4h-1c-0.552 0-1-0.448-1-1s0.448-1 1-1h1c1.105 0 2-0.895 2-2s-0.895-2-2-2h-2v-1c0-2.761-2.239-5-5-5-2.5 0-4.55 1.82-4.94 4.19-0.33-0.12-0.69-0.19-1.060-0.19-1.657 0-3 1.343-3 3s1.343 3 3 3zM14.83 15.67c1.56 1.56 1.56 3.83 0 5.41-0.78 0.78-1.83 0.92-2.83 0.92s-2.050-0.14-2.83-0.92c-1.56-1.58-1.56-3.85 0-5.41l2.83-4.67 2.83 4.67zM13.41 16.69l-1.41-2.44-1.41 2.44c-0.79 0.81-0.79 2.010 0 2.81 0.41 0.43 0.91 0.5 1.41 0.5s1-0.070 1.41-0.5c0.79-0.8 0.79-2 0-2.81z"></path>
</svg>
