<!-- Generated by IcoMoon.io -->
<svg version="1.1" xmlns="http://www.w3.org/2000/svg" width="24" height="24" viewBox="0 0 24 24">
<title>weather-partlycloudy</title>
<path d="M12.74 5.47c2.36 1.030 3.61 3.56 3.18 5.99 1.27 1.1 2.080 2.73 2.080 4.54v0.17c0.31-0.11 0.65-0.17 1-0.17 1.657 0 3 1.343 3 3s-1.343 3-3 3h-13c-2.209 0-4-1.791-4-4s1.791-4 4-4h0.27c-1.27-1.55-1.67-3.76-0.77-5.74 1.22-2.76 4.47-4.020 7.24-2.79zM11.93 7.3c-1.77-0.8-3.84 0.010-4.62 1.77-0.46 1.020-0.38 2.15 0.1 3.060 1.090-1.3 2.75-2.13 4.59-2.13 0.7 0 1.38 0.12 2 0.34-0.060-1.28-0.82-2.48-2.070-3.040zM13.55 3.64c-0.55-0.24-1.1-0.41-1.67-0.52l2.49-1.3 0.9 2.89c-0.51-0.42-1.080-0.78-1.72-1.070zM6.090 4.44c-0.49 0.35-0.92 0.75-1.29 1.19l0.11-2.81 2.96 0.68c-0.62 0.21-1.22 0.53-1.78 0.94zM18 9.71c-0.090-0.59-0.22-1.16-0.41-1.71l2.38 1.5-2.050 2.23c0.11-0.65 0.13-1.33 0.080-2.020zM3.040 11.3c0.070 0.6 0.2 1.17 0.39 1.7l-2.37-1.5 2.040-2.22c-0.1 0.65-0.13 1.33-0.060 2.020zM19 18h-3v-2c0-2.209-1.791-4-4-4s-4 1.791-4 4h-2c-1.105 0-2 0.895-2 2s0.895 2 2 2h13c0.552 0 1-0.448 1-1s-0.448-1-1-1z"></path>
</svg>
