<!-- Generated by IcoMoon.io -->
<svg version="1.1" xmlns="http://www.w3.org/2000/svg" width="24" height="24" viewBox="0 0 24 24">
<title>weather-pouring</title>
<path d="M9 12c0.53 0.14 0.85 0.69 0.71 1.22l-1.3 4.83c-0.14 0.54-0.69 0.85-1.22 0.71-0.54-0.14-0.85-0.69-0.69-1.22l1.28-4.83c0.14-0.54 0.69-0.85 1.22-0.71zM13 12c0.53 0.14 0.85 0.69 0.71 1.22l-2.070 7.73c-0.14 0.55-0.69 0.85-1.23 0.71-0.53-0.16-0.85-0.69-0.71-1.23l2.080-7.72c0.14-0.54 0.69-0.85 1.22-0.71zM17 12c0.53 0.14 0.85 0.69 0.71 1.22l-1.3 4.83c-0.14 0.54-0.69 0.85-1.22 0.71-0.54-0.14-0.85-0.69-0.69-1.22l1.28-4.83c0.14-0.54 0.69-0.85 1.22-0.71zM17 10v-1c0-2.761-2.239-5-5-5-2.5 0-4.55 1.82-4.94 4.19-0.33-0.12-0.69-0.19-1.060-0.19-1.657 0-3 1.343-3 3 0 1.11 0.6 2.080 1.5 2.6v-0.010c0.5 0.28 0.64 0.91 0.37 1.37-0.28 0.47-0.87 0.64-1.37 0.36v0.010c-1.5-0.86-2.5-2.48-2.5-4.33 0-2.761 2.239-5 5-5 1-2.35 3.3-4 6-4 3.43 0 6.24 2.66 6.5 6.030l0.5-0.030c2.209 0 4 1.791 4 4 0 1.5-0.8 2.77-2 3.46v0c-0.5 0.27-1.090 0.11-1.37-0.37-0.27-0.48-0.13-1.090 0.37-1.37v0.010c0.6-0.34 1-0.99 1-1.73 0-1.105-0.895-2-2-2h-2z"></path>
</svg>
