<!-- Generated by IcoMoon.io -->
<svg version="1.1" xmlns="http://www.w3.org/2000/svg" width="24" height="24" viewBox="0 0 24 24">
<title>web</title>
<path d="M16.36 14c0.080-0.66 0.14-1.32 0.14-2s-0.060-1.34-0.14-2h3.38c0.16 0.64 0.26 1.31 0.26 2s-0.1 1.36-0.26 2zM14.59 19.56c0.6-1.11 1.060-2.31 1.38-3.56h2.95c-0.96 1.65-2.49 2.93-4.33 3.56zM14.34 14h-4.68c-0.1-0.66-0.16-1.32-0.16-2s0.060-1.35 0.16-2h4.68c0.090 0.65 0.16 1.32 0.16 2s-0.070 1.34-0.16 2zM12 19.96c-0.83-1.2-1.5-2.53-1.91-3.96h3.82c-0.41 1.43-1.080 2.76-1.91 3.96zM8 8h-2.92c0.95-1.66 2.49-2.94 4.32-3.56-0.6 1.11-1.050 2.31-1.4 3.56zM5.080 16h2.92c0.35 1.25 0.8 2.45 1.4 3.56-1.83-0.63-3.37-1.91-4.32-3.56zM4.26 14c-0.16-0.64-0.26-1.31-0.26-2s0.1-1.36 0.26-2h3.38c-0.080 0.66-0.14 1.32-0.14 2s0.060 1.34 0.14 2zM12 4.030c0.83 1.2 1.5 2.54 1.91 3.97h-3.82c0.41-1.43 1.080-2.77 1.91-3.97zM18.92 8h-2.95c-0.32-1.25-0.78-2.45-1.38-3.56 1.84 0.63 3.37 1.9 4.33 3.56zM12 2c-5.53 0-10 4.5-10 10 0 5.523 4.477 10 10 10v0c5.523 0 10-4.477 10-10v0c0-5.523-4.477-10-10-10v0z"></path>
</svg>
