<!-- Generated by IcoMoon.io -->
<svg version="1.1" xmlns="http://www.w3.org/2000/svg" width="24" height="24" viewBox="0 0 24 24">
<title>weight</title>
<path d="M12 3c2.209 0 4 1.791 4 4 0 0.73-0.19 1.41-0.54 2h2.54c0.95 0 1.75 0.67 1.95 1.56 2.010 8.010 2.050 8.22 2.050 8.44 0 1.105-0.895 2-2 2h-16c-1.105 0-2-0.895-2-2 0-0.22 0.040-0.43 2.050-8.44 0.2-0.89 1-1.56 1.95-1.56h2.54c-0.35-0.59-0.54-1.27-0.54-2 0-2.209 1.791-4 4-4zM12 5c-1.105 0-2 0.895-2 2s0.895 2 2 2c1.105 0 2-0.895 2-2s-0.895-2-2-2z"></path>
</svg>
