<!-- Generated by IcoMoon.io -->
<svg version="1.1" xmlns="http://www.w3.org/2000/svg" width="24" height="24" viewBox="0 0 24 24">
<title>weight-kilogram</title>
<path d="M12 3c2.209 0 4 1.791 4 4 0 0.73-0.19 1.41-0.54 2h2.54c0.95 0 1.75 0.67 1.95 1.56 2.010 8.010 2.050 8.22 2.050 8.44 0 1.105-0.895 2-2 2h-16c-1.105 0-2-0.895-2-2 0-0.22 0.040-0.43 2.050-8.44 0.2-0.89 1-1.56 1.95-1.56h2.54c-0.35-0.59-0.54-1.27-0.54-2 0-2.209 1.791-4 4-4zM12 5c-1.105 0-2 0.895-2 2s0.895 2 2 2c1.105 0 2-0.895 2-2s-0.895-2-2-2zM9.040 15.44l1.36 2.56h1.71l-2.040-3.34 1.88-2.72h-1.75l-1.33 2.39h-0.48v-2.39h-1.42v6.060h1.42v-2.56h0.65zM17.31 17.16v-2.23h-2.36v1.11h0.95v0.75l-0.35 0.14-0.61 0.070c-0.35 0-0.63-0.15-0.83-0.4-0.19-0.26-0.29-0.6-0.29-1.010v-1.25c0-0.41 0.1-0.74 0.3-0.99 0.2-0.26 0.46-0.38 0.79-0.38s0.59 0.080 0.73 0.24c0.16 0.16 0.26 0.4 0.31 0.72h1.32l0.010-0.030c-0.050-0.63-0.28-1.13-0.66-1.5-0.39-0.36-0.98-0.54-1.76-0.54-0.72 0-1.3 0.23-1.76 0.69-0.46 0.45-0.69 1.060-0.69 1.79v1.26c0 0.74 0.24 1.34 0.71 1.8 0.46 0.46 1.070 0.69 1.82 0.69 0.59 0 1.090-0.090 1.48-0.28s0.69-0.4 0.89-0.65z"></path>
</svg>
