<!-- Generated by IcoMoon.io -->
<svg version="1.1" xmlns="http://www.w3.org/2000/svg" width="24" height="24" viewBox="0 0 24 24">
<title>white-balance-sunny</title>
<path d="M3.55 18.54l1.41 1.41 1.8-1.79-1.42-1.42zM11 22.45c0.32 0 2 0 2 0v-2.95h-2zM12 5.5c-3.314 0-6 2.686-6 6v0c0 3.314 2.686 6 6 6v0c3.314 0 6-2.686 6-6v0c0-3.32-2.69-6-6-6zM20 12.5h3v-2h-3zM17.24 18.16l1.8 1.79 1.41-1.41-1.79-1.8zM20.45 4.46l-1.41-1.41-1.8 1.79 1.42 1.42zM13 0.55h-2v2.95h2zM4 10.5h-3v2h3zM6.76 4.84l-1.8-1.79-1.41 1.41 1.79 1.8 1.42-1.42z"></path>
</svg>
