<!-- Generated by IcoMoon.io -->
<svg version="1.1" xmlns="http://www.w3.org/2000/svg" width="24" height="24" viewBox="0 0 24 24">
<title>wikipedia</title>
<path d="M14.97 18.95l-2.56-6.030c-1.020 1.99-2.14 4.080-3.1 6.030-0.010 0.010-0.47 0-0.47 0-1.47-3.45-2.99-6.85-4.47-10.27-0.34-0.84-1.54-2.18-2.37-2.18 0-0.1 0-0.32 0-0.45h5.060v0.45c-0.6 0-1.62 0.4-1.36 1.050 0.72 1.54 3.24 7.51 3.93 9.030 0.47-0.94 1.8-3.42 2.37-4.47-0.45-0.88-1.87-4.18-2.29-5-0.32-0.54-1.13-0.61-1.75-0.61 0-0.15 0.010-0.25 0-0.44l4.46 0.010v0.4c-0.61 0.030-1.18 0.24-0.92 0.82 0.6 1.24 0.95 2.13 1.5 3.28 0.17-0.34 1.070-2.19 1.5-3.16 0.26-0.65-0.13-0.91-1.21-0.91 0.010-0.12 0.010-0.33 0.010-0.43 1.39-0.010 3.48-0.010 3.85-0.020v0.42c-0.71 0.030-1.44 0.41-1.82 0.99l-1.83 3.84c0.18 0.51 1.96 4.46 2.15 4.9l3.85-8.83c-0.3-0.72-1.16-0.87-1.5-0.87 0-0.13 0-0.3 0-0.45l4 0.030v0.42c-0.88 0-1.43 0.5-1.75 1.25-0.8 1.79-3.25 7.49-4.85 11.2 0 0-0.43 0-0.43 0z"></path>
</svg>
